<svg width="578" height="566" viewBox="0 0 578 566" fill="none" xmlns="http://www.w3.org/2000/svg">
<g filter="url(#filter0_d_8_10)">
<path d="M413.18 403.496C413.18 402.501 413.575 402.391 416.284 402.391C418.711 402.391 419.445 402.17 419.953 401.34C420.574 400.18 420.235 398.743 418.937 397.305C418.203 396.421 418.26 396.311 419.614 395.758C420.461 395.481 421.364 395.205 421.703 395.205C421.985 395.205 423.171 394.321 424.412 393.271C428.307 389.844 427.799 391.502 439.991 338.108C444.676 317.601 446.426 308.923 446.2 307.707C445.636 305.165 443.096 300.743 441.459 299.527L440.104 298.421L442.136 285.874C443.265 278.965 445.241 267.137 446.482 259.509C453.99 214.074 457.207 193.07 457.207 189.698C457.207 181.407 452.974 174.554 445.636 170.961C443.265 169.745 436.774 168.031 434.742 168.031C434.121 168.031 432.089 167.644 430.283 167.202C427.686 166.539 422.606 166.373 403.302 166.373H379.538L375.248 163.665L371.015 160.956L365.314 162.836C358.879 164.991 353.517 166.097 346.631 166.705L341.946 167.092L342.341 165.212C343.018 161.951 344.542 159.519 347.026 157.695C350.017 155.484 349.453 155.429 341.776 156.977C336.753 157.972 336.132 158.027 334.89 157.253C334.213 156.755 333.592 156.645 333.592 156.977C333.592 157.253 332.971 157.529 332.237 157.529C331.503 157.529 330.149 157.695 329.189 157.861C327.665 158.137 327.552 158.358 328.117 159.243C328.625 160.017 328.512 160.459 327.721 161.343C327.101 162.006 326.197 162.504 325.577 162.504C324.956 162.504 324.561 162.891 324.561 163.609C324.561 165.71 321.343 166.373 311.578 166.373C301.249 166.373 297.918 166.871 293.233 169.081C288.718 171.237 285.331 174.167 282.678 178.202C279.856 182.458 279.235 184.779 277.09 198.376L275.34 209.597L271.728 217.059C269.752 221.204 268.115 224.742 268.115 224.908C268.115 225.129 269.244 225.571 270.655 225.958C274.437 226.953 277.372 229.938 279.63 235.133C280.703 237.51 281.944 239.831 282.339 240.274C282.791 240.661 285.783 241.379 289.056 241.877C292.274 242.374 294.983 242.816 295.04 242.872C295.209 243.037 293.629 254.147 292.895 257.464C292.217 260.835 292.613 260.78 283.694 259.232C278.05 258.293 277.429 258.072 276.13 256.524C273.59 253.318 272.179 252.931 263.6 253.373C257.108 253.65 255.754 253.595 254.681 252.821C253.947 252.323 253.496 251.605 253.665 251.163C253.835 250.72 253.778 250.389 253.552 250.389C253.327 250.389 247.626 252.157 240.909 254.368C231.426 257.464 228.604 258.624 228.604 259.343C228.604 259.84 228.942 260.393 229.281 260.504C229.845 260.725 229.845 260.835 229.281 260.835C228.942 260.891 228.604 261.167 228.604 261.443C228.604 262.162 231.595 262.162 235.546 261.388C239.78 260.559 245.311 261.388 254.23 264.207C263.769 267.247 263.6 267.247 266.478 262.438C267.777 260.227 269.188 257.851 269.639 257.132L270.429 255.861L272.687 257.851C273.929 258.956 275.566 260.062 276.356 260.338C277.09 260.614 277.711 261.222 277.711 261.664C277.711 263.046 277.034 264.207 276.243 264.207C275.792 264.207 275.453 264.76 275.453 265.589C275.453 266.363 275.171 266.971 274.889 266.971C274.55 266.971 274.324 267.8 274.324 268.795C274.324 271.172 274.832 271.393 288.718 276.146C298.596 279.518 323.714 288.638 342.905 295.879C347.252 297.537 350.808 299.085 350.808 299.361C350.808 299.858 325.633 348.886 324.73 350.268C324.335 350.765 323.262 350.655 320.158 349.881C316.432 348.941 313.61 348.831 288.661 348.72C273.59 348.665 261.06 348.831 260.834 349.107C260.608 349.383 259.818 355.187 259.14 362.041C257.334 379.231 257.955 377.518 253.665 377.518H250.053V379.729V381.939H271.333H292.669L292.5 388.849L292.33 395.758H294.306H296.338V390.507V385.256H301.7H307.063V388.02V390.783H309.038H311.014V386.914V383.045H315.078C320.384 383.1 379.425 392.552 379.764 393.436C379.877 393.823 381.288 394.1 383.377 394.1C386.594 394.1 409.059 397.527 412.051 398.466C413.405 398.853 413.349 398.908 411.035 399.903C408.946 400.843 408.664 401.175 408.664 402.778C408.664 404.546 408.721 404.602 410.922 404.602C412.785 404.602 413.18 404.436 413.18 403.496ZM396.472 280.513C390.658 278.523 385.804 276.809 385.634 276.699C385.521 276.533 386.65 272.996 388.231 268.795C391.9 258.846 393.706 253.65 394.779 249.504C395.287 247.625 397.319 241.655 399.351 236.239C406.35 217.556 408.89 205.341 407.648 195.668C407.253 192.628 406.463 189.422 405.616 187.598C403.866 183.895 404.6 184.116 409.567 188.869C413.744 192.904 416.566 197.271 418.598 203.13C421.195 210.481 420.913 215.898 416.341 240.439C414.309 251.549 411.656 265.921 410.527 272.332C409.172 279.905 408.156 284.105 407.704 284.105C407.366 284.105 402.286 282.503 396.472 280.513Z" fill="#FFBF00"/>
<path d="M403.697 404.215C404.431 404.049 404.713 403.441 404.713 402.225V400.456L372.2 400.622C348.38 400.732 339.519 400.622 339.236 400.18C339.011 399.848 336.922 399.406 334.551 399.24C330.882 398.964 330.205 399.074 329.866 399.848C329.584 400.511 328.738 400.732 325.915 400.732H322.303V402.667V404.602H326.818C330.431 404.602 331.334 404.436 331.334 403.772C331.334 403.054 335.624 402.943 366.33 402.943C397.036 402.943 401.326 403.054 401.326 403.772C401.326 404.602 401.834 404.712 403.697 404.215Z" fill="#FFB800"/>
<path d="M321.004 404.215C321.4 404.104 321.738 403.109 321.738 402.059V400.18L315.812 400.567L309.885 400.898V399.185C309.885 397.527 309.772 397.416 307.909 397.416H305.934L305.99 400.069C305.99 402.943 306.95 406.039 307.006 403.551C307.063 402.612 307.288 402.335 307.966 402.612C308.474 402.778 311.127 402.943 313.892 402.943C317.956 402.943 318.916 403.109 318.916 403.772C318.916 404.602 319.706 404.767 321.004 404.215Z" fill="#FFB800"/>
<path d="M296.507 404.215C296.733 404.049 296.902 402.667 296.902 401.175V398.521H294.927C293.346 398.521 292.951 398.743 292.951 399.627C292.951 400.732 292.556 400.732 270.373 400.732H247.795V402.667C247.795 404.657 248.529 405.21 249.319 403.772C249.714 403.109 253.157 402.943 272.518 402.833C293.798 402.667 295.209 402.722 295.209 403.662C295.209 404.602 295.83 404.878 296.507 404.215Z" fill="#FFB800"/>
<path d="M310.449 394.1V391.336H308.474H306.498V394.1V396.863H308.474H310.449V394.1Z" fill="#FFB800"/>
<path d="M188.753 367.458C190.164 361.599 191.688 354.911 192.14 352.645C192.591 350.378 194.285 342.916 195.865 336.063C197.446 329.209 199.76 319.425 200.945 314.23C202.131 309.089 204.05 301.019 205.122 296.321C207.267 287.311 207.719 283.055 206.421 284.769C205.743 285.598 204.727 285.377 193.833 282.116C181.641 278.468 179.553 278.136 176.843 279.241C175.997 279.573 173.174 279.905 170.634 279.905C165.272 279.96 163.691 280.789 161.49 284.714C160.361 286.593 160.079 287.919 160.079 290.738C160.079 294.331 160.869 297.261 172.44 337.168C173.795 341.866 176.843 352.423 179.214 360.659C181.585 368.84 183.73 375.804 184.012 376.08C184.238 376.302 184.35 376.91 184.181 377.297C184.012 377.794 184.294 378.07 185.028 378.07C185.987 378.07 186.439 376.854 188.753 367.458Z" fill="#FFBF00"/>
<path d="M220.024 267.413C220.419 267.026 220.701 266.142 220.701 265.368C220.701 264.041 220.701 264.041 219.516 265.091C218.274 266.142 218.274 266.142 218.951 264.926C219.29 264.207 219.854 263.654 220.137 263.654C220.475 263.654 220.701 263.433 220.701 263.102C220.701 262.217 214.21 259.288 211.557 258.956C209.412 258.68 209.299 258.735 210.428 259.343L211.726 260.006L210.202 260.614L208.622 261.222L212.912 264.041C216.073 266.086 217.032 267.026 216.581 267.468C216.129 267.91 216.411 268.076 217.653 268.076C218.556 268.076 219.629 267.8 220.024 267.413Z" fill="#FFB800"/>
<path d="M264.221 248.178C272.631 246.52 275.058 245.801 270.655 246.243C269.075 246.409 265.293 246.796 262.188 247.072C254.117 247.846 252.875 248.122 252.875 249.007C252.875 250.168 255.133 250.002 264.221 248.178Z" fill="#FFB800"/>
<path d="M248.472 244.585C248.585 244.419 251.52 243.811 254.907 243.203C258.294 242.595 263.487 241.49 266.422 240.771C275.058 238.671 271.05 238.394 260.326 240.384C255.133 241.324 250.222 242.098 249.319 242.098C248.077 242.098 247.795 242.319 247.795 243.479C247.795 244.861 247.908 245.082 248.472 244.585Z" fill="#FFB800"/>
<path d="M188.81 243.203C189.543 242.927 189.6 242.706 189.092 242.706C188.64 242.706 187.737 242.927 187.116 243.203C186.382 243.48 186.326 243.701 186.834 243.701C187.286 243.701 188.189 243.48 188.81 243.203Z" fill="#FFB800"/>
<path d="M185.818 235.078C186.382 234.967 186.834 234.58 186.834 234.304C186.834 233.586 186.157 233.696 184.915 234.636C183.786 235.465 184.012 235.575 185.818 235.078Z" fill="#FFB800"/>
<path d="M256.826 233.807C256.826 232.646 256.262 232.48 254.117 233.033C252.085 233.586 252.593 234.912 254.851 234.912C256.431 234.912 256.826 234.691 256.826 233.807Z" fill="#FFB800"/>
<path d="M246.835 484.914C247.739 484.085 247.174 483.09 245.819 483.09C244.803 483.09 244.408 483.366 244.408 484.195C244.408 485.301 245.989 485.743 246.835 484.914Z" fill="#BC8800"/>
<path d="M246.102 481.984C246.102 481.708 245.706 481.432 245.255 481.432C244.747 481.432 244.408 480.934 244.408 480.05C244.408 479.055 244.126 478.668 243.279 478.668C242.376 478.668 242.15 479.055 242.15 480.603C242.15 482.427 242.263 482.537 244.126 482.537C245.198 482.537 246.102 482.316 246.102 481.984Z" fill="#BC8800"/>
<path d="M207.719 472.311C207.719 470.653 207.549 470.653 205.404 471.869C203.26 473.141 203.316 473.693 205.743 473.693C207.493 473.693 207.719 473.527 207.719 472.311Z" fill="#BC8800"/>
<path d="M212.799 469.548C212.799 467.89 212.629 467.89 210.485 469.106C208.34 470.377 208.396 470.93 210.823 470.93C212.573 470.93 212.799 470.764 212.799 469.548Z" fill="#BC8800"/>
<path d="M244.295 468.885C244.013 467.447 240.457 467.447 240.457 468.829C240.457 469.603 240.909 469.824 242.489 469.824C244.07 469.824 244.465 469.658 244.295 468.885Z" fill="#BC8800"/>
<path d="M186.27 468.221C186.27 467.503 185.931 467.061 185.254 467.061C184.746 467.061 182.939 466.895 181.302 466.729C178.875 466.397 178.367 466.508 178.367 467.226C178.367 468.055 179.045 468.332 183.842 468.995C186.044 469.327 186.27 469.271 186.27 468.221Z" fill="#BC8800"/>
<path d="M413.18 403.496C413.18 402.612 413.631 402.446 416.397 402.28C419.671 402.114 419.671 402.114 419.84 400.235C419.953 399.185 419.784 398.521 419.502 398.743C419.219 398.908 418.994 398.632 419.05 398.079C419.106 397.305 418.486 397.084 415.72 396.753C411.656 396.366 322.585 381.718 318.916 380.889C317.336 380.502 304.522 380.281 284.033 380.281C262.922 380.281 251.746 380.115 251.746 379.729C251.746 379.397 253.327 379.176 255.359 379.176C259.648 379.176 259.028 380.889 260.834 363.699C261.511 356.845 262.245 351.097 262.471 350.876C262.64 350.599 264.785 350.434 267.156 350.378C270.994 350.323 271.502 350.212 271.502 349.273C271.502 348.002 266.196 343.746 261.793 341.535C259.648 340.484 257.729 339.932 256.092 339.932H253.609L252.931 347.836C252.141 356.901 251.182 366.352 249.206 384.979C247.569 400.843 247.456 404.049 248.642 404.049C249.093 404.049 249.488 403.662 249.488 403.22C249.488 402.501 252.367 402.391 272.01 402.391H294.588L294.814 401.175C294.983 400.401 295.096 400.677 295.153 402.004C295.209 404.491 296.056 404.712 296.564 402.335C297.128 399.461 296.959 388.572 296.338 388.572C295.717 388.572 295.604 386.914 296.112 385.587C296.394 384.869 297.467 384.703 301.813 384.703H307.119L306.78 387.909C305.143 404.436 305.143 404.049 306.216 404.049C306.667 404.049 307.063 403.662 307.063 403.22C307.063 402.556 308.079 402.391 312.989 402.391C318.521 402.391 318.916 402.446 318.916 403.496C318.916 404.546 319.255 404.602 325.125 404.436C330.6 404.325 331.334 404.215 331.334 403.386C331.334 402.446 333.366 402.391 366.33 402.391C400.931 402.391 401.326 402.391 401.326 403.496C401.326 404.546 401.721 404.602 407.253 404.602C412.728 404.602 413.18 404.546 413.18 403.496ZM412.051 401.948C413.123 401.506 414.196 401.119 414.421 401.175C414.704 401.23 414.873 401.064 414.873 400.843C414.873 400.622 415.381 400.401 416.002 400.401C416.623 400.401 417.131 400.622 417.131 400.898C417.131 401.175 417.526 401.119 417.978 400.732C418.711 400.124 418.768 400.18 418.486 400.954C418.26 401.562 417.413 401.838 415.72 401.838C414.365 401.838 413.067 402.114 412.897 402.391C412.728 402.722 411.994 402.943 411.317 402.888C410.301 402.888 410.47 402.667 412.051 401.948ZM325.52 402.556C326.536 402.446 328.229 402.446 329.189 402.556C330.205 402.667 329.415 402.778 327.383 402.778C325.351 402.778 324.561 402.667 325.52 402.556ZM331.56 401.34C331.729 401.064 332.519 400.898 333.31 400.898C334.1 400.898 334.89 401.064 335.059 401.34C335.229 401.617 334.438 401.838 333.31 401.838C332.181 401.838 331.39 401.617 331.56 401.34ZM294.249 386.527C294.362 385.035 294.419 386.251 294.419 389.125C294.419 391.999 294.362 393.215 294.249 391.778C294.137 390.286 294.137 387.964 294.249 386.527ZM298.144 383.211C300.289 383.1 303.676 383.1 305.764 383.211C307.909 383.321 306.159 383.377 301.982 383.377C297.805 383.377 296.056 383.321 298.144 383.211ZM302.378 381C303.732 380.889 305.877 380.889 307.175 381C308.53 381.11 307.458 381.221 304.805 381.221C302.152 381.221 301.079 381.11 302.378 381Z" fill="#BF8600"/>
<path d="M187.963 370.608C187.963 368.398 186.608 367.9 186.044 369.945C185.479 371.99 185.649 372.543 186.834 372.543C187.737 372.543 187.963 372.156 187.963 370.608Z" fill="#BC8800"/>
<path d="M189.092 365.634C189.092 363.423 187.737 362.925 187.173 364.971C186.608 367.016 186.778 367.568 187.963 367.568C188.866 367.568 189.092 367.181 189.092 365.634Z" fill="#BC8800"/>
<path d="M321.964 360.493C323.432 357.232 324.222 354.966 323.77 355.408C322.98 356.237 318.747 365.965 319.085 366.297C319.198 366.352 320.496 363.754 321.964 360.493Z" fill="#BC8800"/>
<path d="M190.447 361.433C191.011 358.614 190.842 357.066 189.995 357.066C189.543 357.066 188.979 358.117 188.584 359.498C187.737 362.815 187.794 363.146 189.035 363.146C189.769 363.146 190.164 362.594 190.447 361.433Z" fill="#BC8800"/>
<path d="M333.535 338.329C337.938 329.817 341.494 322.742 341.494 322.576C341.494 322.41 340.93 322.244 340.196 322.244C339.123 322.244 337.995 324.068 332.011 335.786C328.229 343.248 325.125 349.715 325.125 350.212C325.125 350.821 324.786 350.986 323.827 350.655C317.505 348.665 313.271 348.223 313.271 349.549C313.271 350.047 314.344 350.544 316.094 350.931C317.618 351.263 320.384 352.037 322.133 352.645C323.94 353.253 325.407 353.75 325.464 353.75C325.577 353.75 329.189 346.786 333.535 338.329Z" fill="#BC8800"/>
<path d="M194.115 345.072C195.131 340.54 198.518 326.224 201.623 313.124C207.493 288.417 208.283 284.105 207.267 284.105C205.913 284.105 205.856 284.327 199.252 312.571C192.309 342.419 190.221 351.594 190.221 352.368C190.221 352.81 190.672 353.197 191.237 353.197C192.14 353.197 192.591 351.926 194.115 345.072Z" fill="#BC8800"/>
<path d="M345.163 315.611C346.574 312.903 347.703 310.526 347.703 310.36C347.703 310.195 347.082 310.084 346.292 310.084C345.389 310.084 344.881 310.416 344.881 310.968C344.881 311.411 344.486 312.184 344.034 312.627C343.583 313.124 343.188 314.229 343.188 315.114C343.188 316.164 342.905 316.717 342.341 316.717C341.776 316.717 341.494 317.325 341.494 318.651C341.494 319.702 341.72 320.586 342.059 320.586C342.341 320.586 343.752 318.375 345.163 315.611Z" fill="#BC8800"/>
<path d="M352.162 302.346C354.307 298.311 354.42 297.869 353.517 297.537C352.953 297.371 347.929 295.437 342.341 293.391C322.359 285.874 300.571 277.97 290.242 274.433C284.428 272.443 279.178 270.619 278.501 270.342C277.316 269.845 277.316 269.845 278.896 265.202C279.743 262.715 280.477 260.338 280.477 259.951C280.533 259.619 279.799 259.177 278.896 258.956C277.993 258.79 275.792 257.408 274.042 255.861C272.292 254.368 270.542 253.152 270.204 253.152C269.47 253.152 268.228 254.866 264.785 260.725L262.471 264.649L255.81 262.494C245.763 259.288 238.369 258.569 231.426 260.062C230.636 260.227 235.264 258.569 241.699 256.414C249.375 253.871 253.439 252.268 253.439 251.771C253.439 250.72 254.963 250.002 259.818 248.73L263.882 247.68L259.084 247.957C252.706 248.344 251.746 248.565 251.746 249.725C251.746 250.499 249.319 251.494 239.893 254.534L228.039 258.348V260.559V262.715L231.256 262.217C233.063 261.941 237.183 261.72 240.457 261.775C246.327 261.775 246.497 261.83 258.802 265.976C265.632 268.242 275.227 271.558 280.138 273.272C285.049 274.985 289.564 276.367 290.185 276.367C290.75 276.367 291.258 276.588 291.258 276.809C291.258 277.307 296.733 279.131 298.201 279.131C298.652 279.131 299.16 279.352 299.273 279.684C299.329 279.96 300.797 280.513 302.378 280.9C304.014 281.287 305.369 281.784 305.369 282.005C305.369 282.226 306.385 282.613 307.627 282.779C308.869 283 309.885 283.332 309.885 283.608C309.885 283.884 310.901 284.271 312.143 284.437C313.384 284.658 314.4 284.99 314.4 285.266C314.4 285.487 315.36 285.874 316.489 286.095C317.674 286.316 318.747 286.648 318.916 286.869C319.368 287.422 335.906 293.502 337.035 293.502C337.656 293.502 338.107 293.723 338.107 294.055C338.107 294.331 339.067 294.718 340.196 294.939C341.381 295.16 342.454 295.492 342.623 295.713C343.018 296.21 347.59 297.924 348.606 297.924C349.058 297.924 349.792 298.255 350.187 298.642C350.864 299.195 350.808 299.637 349.904 301.351C348.776 303.451 348.437 306.768 349.34 306.768C349.622 306.768 350.92 304.778 352.162 302.346Z" fill="#BF8600"/>
<path d="M410.019 285.653C410.188 284.935 411.825 276.036 413.688 265.865C415.55 255.695 418.147 241.49 419.502 234.359C421.534 223.139 421.872 220.32 421.872 213.632C421.872 206.557 421.759 205.507 420.292 201.472C417.357 193.125 413.744 188.648 404.261 181.518C401.496 179.418 396.698 175.714 393.65 173.282C386.707 167.7 384.506 166.373 382.473 166.373H380.837L383.094 167.976C384.336 168.86 385.86 169.689 386.425 169.8C386.989 169.911 387.441 170.353 387.328 170.74C387.271 171.127 387.384 171.292 387.666 171.127C388.4 170.684 390.658 172.453 390.263 173.116C390.037 173.448 390.094 173.559 390.432 173.393C390.715 173.227 391.731 173.724 392.634 174.554C393.593 175.383 393.819 175.659 393.198 175.217C392.013 174.388 392.013 174.388 393.085 175.604C393.65 176.267 394.327 176.764 394.553 176.709C395.399 176.488 401.552 184.447 403.358 188.206C408.213 198.155 406.801 209.984 397.827 234.083C395.682 239.831 393.537 246.077 393.085 247.901C391.674 253.318 384.167 274.267 382.699 276.975C382.361 277.528 382.191 278.025 382.304 278.025C382.417 278.025 388.4 280.015 395.625 282.447C402.85 284.879 408.946 286.869 409.229 286.869C409.567 286.869 409.906 286.316 410.019 285.653Z" fill="#B48600"/>
<path d="M221.943 265.478C222.507 265.368 222.959 264.76 222.959 264.152C222.959 263.157 222.846 263.102 221.322 263.931C218.33 265.423 218.726 266.307 221.943 265.478Z" fill="#BC8800"/>
<path d="M221.096 263.378C223.975 262.162 223.467 261.222 220.137 261.609C218.048 261.886 217.314 261.775 217.314 261.222C217.314 260.338 214.944 259.232 213.081 259.232C212.065 259.232 211.67 258.956 211.67 258.127C211.67 257.243 211.275 257.021 209.694 257.021C207.211 257.021 207.211 257.685 209.638 258.956C211.444 259.896 211.501 260.062 210.654 260.78C209.807 261.443 209.807 261.499 211.049 261.222C211.896 261.056 213.646 261.554 215.678 262.604C217.484 263.488 219.064 264.207 219.121 264.207C219.234 264.152 220.137 263.82 221.096 263.378Z" fill="#BC8800"/>
<path d="M205.461 255.087C205.461 253.981 205.179 253.705 204.05 253.705C203.147 253.705 202.639 253.373 202.639 252.876C202.639 252.323 202.074 252.047 200.945 252.047C199.986 252.047 199.252 251.826 199.252 251.549C199.252 251.273 198.744 251.162 198.123 251.328C196.938 251.66 196.543 252.6 197.615 252.6C197.954 252.6 199.704 253.484 201.51 254.534C203.316 255.584 204.896 256.469 205.122 256.469C205.292 256.469 205.461 255.861 205.461 255.087Z" fill="#BC8800"/>
<path d="M203.768 248.233C203.768 247.957 204.501 247.459 205.461 247.072C206.364 246.685 207.154 246.188 207.154 245.912C207.154 245.635 207.549 245.414 208.001 245.414C209.074 245.414 209.638 243.148 209.186 240.716C208.848 239.113 208.565 238.781 207.437 238.781C206.308 238.781 206.025 238.505 206.025 237.399V236.073L203.937 237.234C202.808 237.897 198.688 239.5 194.793 240.771C189.318 242.595 188.132 243.093 189.656 243.148C192.027 243.203 203.316 240.605 203.768 239.887C204.332 238.947 206.59 239.997 206.929 241.324C207.38 242.982 206.646 243.866 203.768 245.138C202.244 245.801 201.566 246.409 201.792 246.962C201.961 247.349 202.074 247.957 202.074 248.233C202.074 248.509 202.469 248.73 202.921 248.73C203.373 248.73 203.768 248.509 203.768 248.233Z" fill="#BC8800"/>
<path d="M258.237 242.374C272.066 239.445 273.026 238.284 259.592 240.716C255.415 241.49 251.464 242.098 250.73 242.098C249.996 242.098 249.488 242.429 249.488 242.927C249.488 244.032 250.787 243.922 258.237 242.374Z" fill="#BC8800"/>
<path d="M246.102 242.871C246.102 242.54 242.771 239.334 242.376 239.334C242.263 239.334 242.15 240.218 242.15 241.269C242.15 243.093 242.263 243.203 244.126 243.203C245.198 243.203 246.102 243.037 246.102 242.871Z" fill="#BC8800"/>
<path d="M247.851 236.46C249.375 235.962 252.198 235.354 254.004 235.133C256.826 234.857 257.391 234.58 257.391 233.751C257.391 233.143 257.221 232.701 256.939 232.701C256.6 232.701 251.407 233.586 243.392 234.967C238.369 235.852 236.562 233.586 239.723 230.38L241.247 228.832H239.215H237.183L236.788 232.48C236.562 234.47 236.562 236.294 236.788 236.46C237.014 236.681 238.933 236.957 241.078 237.123C243.9 237.344 245.763 237.178 247.851 236.46Z" fill="#BC8800"/>
<path d="M207.719 233.751C207.719 230.767 206.59 230.214 201.623 230.932C195.527 231.872 195.301 231.817 195.301 230.214C195.301 229.219 195.583 228.832 196.43 228.832C197.333 228.832 197.559 228.445 197.559 226.897C197.559 225.239 197.389 224.963 196.26 224.963C195.131 224.963 194.962 225.184 195.188 226.842C195.414 228.5 195.188 228.887 193.382 230.048C191.858 230.988 191.35 231.706 191.35 232.867C191.35 233.696 191.519 234.359 191.745 234.359C192.027 234.359 194.623 233.972 197.559 233.53C204.953 232.425 205.348 232.425 205.8 234.083C206.308 236.073 207.719 235.852 207.719 233.751Z" fill="#BC8800"/>
<path d="M189.769 234.525C191.18 234.194 191.011 232.701 189.656 232.701C188.471 232.701 185.141 234.138 185.141 234.636C185.141 234.967 188.414 234.857 189.769 234.525Z" fill="#BC8800"/>
<path d="M191.18 225.792C193.607 224.797 193.551 223.857 191.067 223.857C189.318 223.857 189.092 224.023 189.092 225.239C189.092 226.013 189.148 226.621 189.205 226.621C189.318 226.566 190.221 226.234 191.18 225.792Z" fill="#BC8800"/>
<path d="M258.632 225.35C260.157 224.686 260.157 224.686 259.253 222.918C258.181 220.762 257.391 220.541 257.391 222.476C257.391 223.47 257.108 223.857 256.262 223.857C255.528 223.857 255.133 224.244 255.133 224.963C255.133 226.234 256.318 226.345 258.632 225.35Z" fill="#BC8800"/>
<path d="M198.575 202.356C199.026 202.135 199.252 201.361 199.139 200.698L198.97 199.537L196.543 200.698C195.244 201.361 194.172 202.08 194.172 202.356C194.172 202.964 197.615 203.019 198.575 202.356Z" fill="#BC8800"/>
<path d="M204.332 198.708C204.332 197.381 204.276 197.326 202.526 198.045C199.929 199.095 199.816 200.09 202.3 200.09C204.106 200.09 204.332 199.924 204.332 198.708Z" fill="#BC8800"/>
<path d="M225.217 189.864C225.217 188.538 225.16 188.482 223.411 189.201C220.814 190.251 220.701 191.246 223.185 191.246C224.991 191.246 225.217 191.08 225.217 189.864Z" fill="#BC8800"/>
<path d="M230.297 187.653C230.297 186.327 230.24 186.272 228.491 186.99C225.894 188.04 225.781 189.035 228.265 189.035C230.071 189.035 230.297 188.869 230.297 187.653Z" fill="#BC8800"/>
<path d="M362.097 145.756C363.169 143.269 363.169 143.158 362.097 143.158C361.645 143.158 361.137 143.932 360.911 145.093C360.403 147.801 361.081 148.188 362.097 145.756Z" fill="#BC8800"/>
<path d="M365.879 140.892C366.443 140.616 366.895 139.952 366.895 139.455C366.895 138.902 366.612 138.736 365.879 139.013C365.371 139.234 364.467 139.565 363.903 139.676C363.395 139.842 362.943 140.339 362.943 140.726C362.943 141.61 364.467 141.721 365.879 140.892Z" fill="#BC8800"/>
<path d="M361.25 135.42C361.25 133.596 361.081 133.209 360.121 133.209C359.162 133.209 358.992 133.596 358.992 135.42C358.992 137.244 359.162 137.631 360.121 137.631C361.081 137.631 361.25 137.244 361.25 135.42Z" fill="#BC8800"/>
<path d="M342.284 135.42C343.131 135.143 344.373 134.48 344.994 133.927C346.123 132.933 346.123 132.933 344.768 132.601C344.091 132.435 342.51 132.601 341.268 133.043C339.914 133.485 337.995 133.651 335.906 133.43L332.745 133.098L333.931 134.259C335.229 135.641 339.688 136.249 342.284 135.42Z" fill="#BC8800"/>
<path d="M361.476 128.677C362.04 126.576 361.871 125.471 360.968 125.471C360.403 125.471 360.121 124.918 360.121 123.813C360.121 122.486 359.839 122.099 358.541 121.823C357.694 121.602 356.847 121.215 356.678 120.938C356.509 120.662 355.436 120.33 354.307 120.109C352.614 119.888 352.219 119.943 352.219 120.717C352.219 121.215 351.937 121.602 351.654 121.602C351.316 121.602 351.09 121.988 351.09 122.431C351.09 123.315 354.307 124.089 356.452 123.702C357.807 123.426 357.863 123.536 357.863 126.079C357.863 128.124 358.089 128.787 358.71 128.787C359.162 128.787 359.557 129.063 359.557 129.34C359.557 130.445 361.137 129.837 361.476 128.677Z" fill="#BC8800"/>
<path d="M361.814 124.144C361.814 123.315 363 122.707 364.58 122.707C365.145 122.707 366.217 122.21 367.007 121.657C367.911 120.938 368.644 120.717 369.152 121.049C369.999 121.546 370.846 120.828 370.846 119.556C370.846 118.396 366.443 118.672 364.806 119.943C364.016 120.551 362.774 121.049 362.04 121.049C360.855 121.049 360.686 121.325 360.686 122.983C360.686 124.034 360.911 124.918 361.25 124.918C361.532 124.918 361.814 124.586 361.814 124.144Z" fill="#BC8800"/>
<path d="M371.015 105.738C370.451 104.246 368.136 100.763 367.459 100.321C367.12 100.1 366.895 100.708 366.895 101.924C366.895 103.306 367.12 103.914 367.741 103.914C368.249 103.914 368.588 104.411 368.588 105.296C368.588 106.401 368.87 106.678 369.999 106.678C371.072 106.678 371.297 106.457 371.015 105.738Z" fill="#BC8800"/>
<path d="M327.834 104.909C328.512 104.577 329.979 103.085 331.052 101.593C332.124 100.155 333.253 98.9395 333.592 98.9395C333.874 98.9395 334.156 98.7184 334.156 98.3867C334.156 98.1104 333.253 97.834 332.181 97.834C330.374 97.834 330.205 97.9445 330.205 99.4922C330.205 100.763 329.979 101.15 329.076 101.15C328.455 101.15 327.665 101.648 327.27 102.256C326.536 103.417 322.867 103.859 322.867 102.809C322.867 102.532 321.964 102.256 320.892 102.256C318.295 102.256 318.352 103.196 321.004 104.246C323.883 105.462 326.31 105.683 327.834 104.909Z" fill="#BC8800"/>
<path d="M358.992 102.532C358.992 100.985 358.766 100.598 357.863 100.598C357.129 100.598 356.734 100.211 356.734 99.4923C356.734 98.7737 356.339 98.3868 355.662 98.3868C355.041 98.3868 354.477 98.1104 354.364 97.8341C354.251 97.5024 352.84 97.1155 351.203 96.8944C348.776 96.6181 348.268 96.7286 348.268 97.3919C348.268 97.9446 349.227 98.4974 350.864 98.8843C354.138 99.7134 356.001 100.874 357.073 102.864C358.202 105.02 358.992 104.854 358.992 102.532Z" fill="#BC8800"/>
<path d="M340.478 99.1053C341.043 98.9947 341.494 98.4973 341.494 98.0551C341.494 97.5023 340.704 97.2812 338.39 97.2812C336.132 97.2812 335.285 97.5023 335.285 98.0551C335.285 99.2158 337.995 99.7686 340.478 99.1053Z" fill="#BC8800"/>
<path d="M346.123 98.5525C348.155 98.0551 347.252 96.7285 344.881 96.7285C343.018 96.7285 342.623 96.8943 342.623 97.834C342.623 98.9395 343.752 99.1605 346.123 98.5525Z" fill="#BC8800"/>
<path d="M224.088 487.235C224.483 486.738 225.273 486.517 225.838 486.683C226.684 486.959 226.91 486.738 226.91 485.632C226.91 484.361 226.684 484.195 224.935 484.195C223.072 484.195 222.959 484.306 222.959 486.13C222.959 488.286 223.072 488.396 224.088 487.235Z" fill="#384D4B"/>
<path d="M237.183 486.019C239.046 485.577 238.312 484.195 236.224 484.195C234.643 484.195 234.248 484.416 234.248 485.301C234.248 486.406 235.038 486.572 237.183 486.019Z" fill="#384D4B"/>
<path d="M186.89 468.608C187.06 467.116 186.721 466.231 185.874 465.568C184.915 464.85 184.915 464.739 187.624 458.659L188.527 456.559H187.116C185.931 456.559 185.705 456.835 185.705 458.217C185.705 459.267 185.423 459.875 184.915 459.875C184.52 459.875 184.012 460.428 183.786 461.146C183.278 463.081 183.391 465.402 184.012 465.402C184.294 465.402 184.576 465.9 184.576 466.453C184.576 468.111 185.197 469.271 186.044 469.271C186.495 469.271 186.89 468.94 186.89 468.608Z" fill="#384D4B"/>
<path d="M169.9 464.573C169.9 463.578 169.505 463.247 167.925 462.97C166.796 462.749 162.45 461.478 158.216 460.151C153.983 458.77 150.201 457.664 149.806 457.664C149.411 457.664 149.016 457.443 148.903 457.222C148.677 456.669 142.976 454.348 141.904 454.348C141.452 454.348 141.113 454.127 141.113 453.795C141.113 453.519 140.323 453.242 139.42 453.242C138.291 453.242 137.727 452.966 137.727 452.413C137.727 451.86 137.106 451.584 135.751 451.584C134.679 451.584 133.775 451.805 133.775 452.081C133.775 453.408 148.113 459.488 159.176 462.804C170.07 466.121 169.9 466.066 169.9 464.573Z" fill="#384D4B"/>
<path d="M244.408 453.629C244.408 453.242 245.029 446.609 245.819 438.871C246.553 431.133 248.19 414.109 249.488 401.009C250.73 387.964 251.859 376.633 252.028 375.859C252.311 374.422 253.439 363.091 254.625 349.494C255.246 342.474 255.415 341.59 256.375 341.59C257.278 341.59 257.391 341.037 257.391 335.123C257.391 324.4 255.02 317.104 249.883 311.576C247.626 309.2 247.513 308.978 248.077 307.265C248.585 305.883 248.811 305.662 249.093 306.325C249.545 307.486 271.22 340.429 275.34 346.178L278.388 350.434H296.846C313.892 350.434 315.586 350.544 319.198 351.594C321.4 352.202 323.714 352.755 324.448 352.81C325.577 352.921 327.157 350.157 339.857 325.616C347.647 310.637 353.799 298.145 353.517 297.924C352.84 297.261 307.796 280.623 293.516 275.704C286.516 273.327 277.147 270.011 272.631 268.408C250.504 260.338 242.15 258.569 233.514 260.061C230.974 260.504 228.829 260.78 228.716 260.67C228.604 260.559 230.015 259.951 231.821 259.343C233.74 258.68 234.587 258.182 233.797 258.182C232.047 258.127 222.225 260.283 221.83 260.835C221.661 261.112 220.701 261.72 219.685 262.217C218.726 262.715 217.879 263.267 217.879 263.488C217.879 263.82 220.758 263.433 222.677 262.825C223.298 262.659 222.79 263.046 221.548 263.71C217.653 265.81 211.614 272.332 209.299 276.92C206.703 282.116 204.558 290.628 191.632 346.841C189.882 354.469 186.947 366.739 185.084 374.201C177.803 403.551 176.787 408.194 177.464 408.526C178.706 409.244 205.517 418.033 205.63 417.812C205.743 417.701 206.985 414.385 208.34 410.405C210.541 404.215 211.105 403.22 212.178 403.054L213.476 402.833L213.025 408.028C212.742 410.847 212.517 415.269 212.517 417.867C212.517 420.465 212.347 422.676 212.122 422.842C211.896 423.063 211.501 423.947 211.331 424.942C211.049 426.324 211.162 426.711 211.839 426.711C212.968 426.711 213.25 428.148 213.702 436.715C213.871 440.585 214.266 444.067 214.549 444.454C214.887 445.062 215.057 444.896 215.057 444.011C215.057 443.348 215.282 442.63 215.621 442.464C215.96 442.298 216.186 444.398 216.298 447.936L216.468 453.74L230.41 454.016C240.965 454.182 244.408 454.127 244.408 453.629Z" fill="#4D4D4D"/>
<path d="M133.211 450.534C133.211 449.373 132.929 448.82 132.364 448.82C131.913 448.82 131.518 448.599 131.518 448.267C131.518 447.991 130.614 447.715 129.542 447.715C127.623 447.715 126.946 447.051 128.131 446.333C128.413 446.167 128.695 445.062 128.695 444.011V441.966L127.002 443.569C126.042 444.454 125.309 445.559 125.309 446.001C125.309 446.499 127.115 448.102 129.26 449.539L133.211 452.192V450.534Z" fill="#384D4B"/>
<path d="M191.35 449.981C192.14 448.544 192.083 448.433 190.785 448.102C189.826 447.881 189.656 448.102 189.656 449.428C189.656 451.252 190.446 451.529 191.35 449.981Z" fill="#384D4B"/>
<path d="M408.1 422.787C408.1 421.847 407.479 418.586 406.688 415.49C403.584 402.999 403.528 402.943 402.342 402.943C401.439 402.943 401.27 403.22 401.552 404.159C401.721 404.878 402.907 409.742 404.205 414.938C405.842 421.736 406.745 424.5 407.309 424.5C407.817 424.5 408.1 423.892 408.1 422.787Z" fill="#384D4B"/>
<path d="M321.174 404.602C321.174 403.33 320.948 402.943 320.045 402.943C318.803 402.943 318.747 403.109 319.255 405.044C319.763 406.868 321.174 406.591 321.174 404.602Z" fill="#384D4B"/>
<path d="M202.187 240.605C202.752 240.495 203.203 239.997 203.203 239.555C203.203 238.284 199.591 238.781 199.365 240.053C199.196 240.992 200.042 241.158 202.187 240.605Z" fill="#384D4B"/>
<path d="M261.793 233.807C264.559 233.199 264.672 232.701 262.019 232.701C260.269 232.701 259.648 232.922 259.648 233.53C259.648 233.972 259.705 234.359 259.761 234.304C259.874 234.249 260.777 234.028 261.793 233.807Z" fill="#384D4B"/>
<path d="M238.764 231.154C238.764 230.932 239.497 230.269 240.457 229.772C242.715 228.445 242.602 227.727 240.175 227.727C238.312 227.727 238.199 227.837 238.199 229.661C238.199 230.711 238.312 231.596 238.481 231.596C238.651 231.596 238.764 231.375 238.764 231.154Z" fill="#384D4B"/>
<path d="M251.859 226.787C253.722 226.345 252.988 224.963 250.899 224.963C249.319 224.963 248.924 225.184 248.924 226.068C248.924 227.174 249.714 227.34 251.859 226.787Z" fill="#384D4B"/>
<path d="M181.189 222.476C181.189 220.762 181.02 220.541 179.778 220.541C178.085 220.541 178.085 220.707 179.327 222.807C180.625 224.908 181.189 224.852 181.189 222.476Z" fill="#384D4B"/>
<path d="M257.955 220.43C256.375 216.617 253.383 211.145 252.875 211.145C252.085 211.145 252.141 214.074 252.988 215.843C253.327 216.617 253.947 217.225 254.399 217.225C254.794 217.225 255.133 217.833 255.133 218.551C255.133 220.707 255.754 221.646 257.165 221.646C258.294 221.646 258.407 221.481 257.955 220.43Z" fill="#384D4B"/>
<path d="M178.367 216.948C178.367 215.235 178.198 215.014 176.956 215.014C175.319 215.014 175.263 215.124 176.392 217.225C177.577 219.436 178.367 219.325 178.367 216.948Z" fill="#384D4B"/>
<path d="M173.852 208.657C173.852 207.331 173.569 206.723 173.005 206.723C172.44 206.723 172.158 206.17 172.158 205.064C172.158 204.18 171.876 203.406 171.594 203.406C171.255 203.406 171.029 202.909 171.029 202.301C171.029 201.693 170.747 201.195 170.465 201.195C170.126 201.195 169.9 200.698 169.9 200.09C169.9 199.371 169.505 198.984 168.771 198.984C167.868 198.984 167.643 198.597 167.643 197.05C167.643 195.336 167.473 195.115 166.175 195.115C165.385 195.115 164.82 195.336 164.933 195.557C166.062 198.321 172.948 210.592 173.344 210.592C173.626 210.592 173.852 209.707 173.852 208.657Z" fill="#384D4B"/>
<path d="M193.043 205.562C193.043 204.899 192.817 204.622 192.422 204.788C192.083 205.009 189.713 203.904 187.116 202.356C184.52 200.808 182.262 199.537 182.093 199.537C181.923 199.537 181.754 200.145 181.754 200.919C181.754 202.08 182.036 202.301 183.447 202.301C184.746 202.301 185.141 202.522 185.141 203.406C185.141 204.291 185.536 204.512 187.116 204.512C188.697 204.512 189.092 204.733 189.092 205.617C189.092 206.502 189.487 206.723 191.067 206.723C192.704 206.723 193.043 206.502 193.043 205.562Z" fill="#384D4B"/>
<path d="M177.803 197.437C177.803 196.995 174.868 195.115 174.19 195.115C174.021 195.115 173.852 195.723 173.852 196.497C173.852 197.713 174.077 197.879 175.827 197.879C176.9 197.879 177.803 197.658 177.803 197.437Z" fill="#384D4B"/>
<path d="M163.691 190.141C163.691 189.588 163.183 188.814 162.619 188.482C160.926 187.598 160.756 187.819 161.716 189.588C162.732 191.467 163.691 191.744 163.691 190.141Z" fill="#384D4B"/>
<path d="M239.892 183.508C239.384 182.623 239.046 182.513 238.199 182.955C236.562 183.839 236.844 184.613 238.764 184.613C240.344 184.613 240.457 184.503 239.892 183.508Z" fill="#384D4B"/>
<path d="M366.725 140.118C368.136 138.902 368.193 138.792 367.177 138.792C365.822 138.792 364.072 139.952 364.072 140.892C364.072 141.887 365.032 141.61 366.725 140.118Z" fill="#384D4B"/>
<path d="M341.494 134.314C341.494 133.43 341.099 133.209 339.519 133.209C337.938 133.209 337.543 133.43 337.543 134.314C337.543 135.199 337.938 135.42 339.519 135.42C341.099 135.42 341.494 135.199 341.494 134.314Z" fill="#384D4B"/>
<path d="M336.414 134.37C336.414 133.762 335.906 133.098 335.285 132.933C334.664 132.767 334.156 132.325 334.156 132.048C334.156 131.772 333.761 131.551 333.31 131.551C332.068 131.551 332.294 132.546 333.874 134.038C335.511 135.696 336.414 135.807 336.414 134.37Z" fill="#384D4B"/>
<path d="M322.698 135.088C323.093 134.922 323.432 134.425 323.432 133.983C323.432 133.43 322.641 133.209 320.609 133.209C315.473 133.209 313.271 130.998 313.271 125.913C313.271 124.476 313.441 124.365 315.924 124.31L318.634 124.255L316.489 123.812C313.892 123.315 313.271 122.762 314.57 122.099C315.078 121.767 315.529 121.325 315.529 121.049C315.529 120.33 314.005 120.386 311.747 121.159C309.772 121.878 309.207 123.591 310.731 124.144C311.183 124.365 311.578 125.029 311.578 125.747C311.578 127.35 312.707 130.445 313.271 130.445C313.554 130.445 313.836 130.998 313.949 131.606C314.062 132.269 314.739 133.264 315.529 133.817C316.94 134.867 321.456 135.641 322.698 135.088Z" fill="#251819"/>
<path d="M346.01 132.822C347.082 131.44 347.139 131.274 346.292 131.109C345.107 130.832 343.752 131.993 343.752 133.264C343.752 134.757 344.599 134.591 346.01 132.822Z" fill="#384D4B"/>
<path d="M370.789 119.888C371.692 117.401 371.58 116.627 370.338 116.627C368.87 116.627 368.136 119.722 369.322 120.883C370.056 121.602 370.225 121.491 370.789 119.888Z" fill="#384D4B"/>
<path d="M323.432 120.828C323.432 119.999 322.246 119.391 320.553 119.391C319.876 119.391 319.48 119.778 319.48 120.496C319.48 121.38 319.876 121.602 321.456 121.602C322.754 121.602 323.432 121.325 323.432 120.828Z" fill="#384D4B"/>
<path d="M318.916 119.722C318.916 118.893 317.731 118.285 315.981 118.285C314.852 118.285 314.796 118.34 315.812 119.391C316.997 120.662 318.916 120.883 318.916 119.722Z" fill="#384D4B"/>
<path d="M316.828 101.316C317.674 100.542 317.166 99.6027 315.755 99.2711C313.723 98.7736 313.61 99.05 315.134 100.487C315.868 101.15 316.658 101.537 316.828 101.316Z" fill="#384D4B"/>
<path d="M220.306 488.23C222.677 488.064 223.693 487.733 224.201 487.014C224.709 486.185 225.048 486.075 225.838 486.572C226.572 487.014 229.224 486.904 235.772 486.185C247.4 484.969 247.343 484.969 247.118 483.477C247.005 482.813 246.327 481.984 245.65 481.653C244.352 481.045 244.295 480.713 244.239 474.467L244.126 467.945L242.715 467.89C238.086 467.669 237.973 467.613 234.813 464.407C231.652 461.091 229.281 459.875 226.12 459.875C223.806 459.875 220.701 461.754 220.701 463.191C220.701 463.965 220.306 464.297 219.459 464.297C218.782 464.297 216.298 465.513 213.984 467.005C211.614 468.442 206.816 471.261 203.316 473.196C195.865 477.286 193.043 479.939 193.043 482.869C193.043 484.361 192.761 484.914 191.971 485.135C190.955 485.411 189.939 486.848 190.39 487.346C191.406 488.341 209.638 488.838 220.306 488.23Z" fill="#251819"/>
<path d="M300.458 471.925C300.684 469.714 301.192 463.91 301.7 459.046C302.152 454.182 302.66 448.986 302.773 447.438C302.886 445.946 303.394 440.806 303.845 436.107C304.353 431.409 304.861 425.937 305.03 423.947C305.2 421.957 305.764 416.651 306.216 412.063C307.627 398.853 308.756 386.748 308.756 385.145V383.598H301.644H294.532L294.87 389.844C295.04 393.215 295.491 404.988 295.773 415.933C296.112 426.877 296.62 443.404 296.902 452.689C297.241 461.975 297.467 470.985 297.467 472.754C297.467 475.683 297.58 475.904 298.821 475.904C300.063 475.904 300.12 475.628 300.458 471.925Z" fill="#251819"/>
<path d="M186.834 467.945C186.834 467.226 186.439 466.231 185.987 465.734C184.802 464.628 184.858 464.242 187.173 459.433C189.769 454.071 191.35 450.092 191.35 449.152C191.35 448.71 190.616 448.102 189.769 447.825C187.511 447.052 184.125 444.067 182.883 441.69C182.318 440.585 181.697 438.429 181.415 436.936C180.964 433.896 179.214 431.851 175.601 430.083C170.747 427.706 167.078 428.203 165.723 431.354C164.99 433.067 164.482 433.399 161.038 434.394C154.491 436.273 153.023 436.55 142.355 438.263C136.711 439.203 131.348 440.308 130.445 440.806C129.542 441.248 128.018 442.63 127.002 443.846C124.857 446.499 124.913 446.665 130.332 450.147C135.017 453.187 139.307 455.453 143.653 457.111C145.516 457.83 147.266 458.548 147.604 458.77C147.887 458.991 151.951 460.317 156.636 461.754C161.264 463.191 166.627 464.85 168.489 465.402C172.61 466.674 180.512 468.498 184.125 468.995C186.721 469.327 186.834 469.271 186.834 467.945Z" fill="#251819"/>
<path d="M419.389 468.553C419.389 468.332 416.397 437.047 414.309 415.546C413.688 409.189 413.18 403.828 413.18 403.496C413.18 403.164 410.865 402.943 407.309 402.943C401.947 402.943 401.439 403.054 401.608 403.938C401.721 404.436 402.737 408.36 403.81 412.616C404.882 416.872 406.18 422.234 406.688 424.5C407.196 426.766 407.704 429.143 407.874 429.751C408.043 430.359 408.269 431.464 408.438 432.238C408.608 433.012 408.946 434.394 409.229 435.278C409.511 436.218 409.849 437.545 410.019 438.318C410.47 440.529 410.865 442.187 411.148 443.182C411.317 443.68 411.543 444.73 411.712 445.504C411.881 446.278 412.728 449.981 413.631 453.795C414.534 457.609 415.438 461.699 415.663 462.915C416.397 467.005 417.131 468.719 418.316 468.719C418.881 468.719 419.389 468.608 419.389 468.553Z" fill="#251819"/>
<path d="M329.302 461.146C329.471 456.946 329.754 449.815 329.923 445.228C330.036 440.695 330.318 432.736 330.487 427.54C330.657 422.4 330.939 414.717 331.108 410.571L331.447 402.943H325.294H319.142L319.311 405.044C319.537 406.923 320.948 419.802 321.456 423.726C321.569 424.611 321.795 426.987 322.021 428.977C323.037 439.258 325.746 464.352 326.028 466.397C326.31 468.332 326.593 468.719 327.665 468.719C328.907 468.719 328.963 468.553 329.302 461.146Z" fill="#251819"/>
<path d="M211.049 460.594C212.065 456.061 213.533 449.871 214.323 446.775L215.79 441.082L214.831 427.706C214.266 420.299 213.645 412.782 213.42 410.958C213.081 407.808 213.025 408.029 212.347 415.38C211.896 419.636 210.71 431.686 209.638 442.188C206.646 471.04 206.816 468.719 208.114 468.719C209.073 468.719 209.469 467.724 211.049 460.594Z" fill="#251819"/>
<path d="M281.38 349.826C280.759 349.494 279.009 347.449 277.485 345.293C273.365 339.324 251.577 306.27 249.996 303.617C249.263 302.29 248.472 301.24 248.246 301.24C248.077 301.24 247.23 303.23 246.384 305.607L244.916 309.973L247.682 312.792C253.214 318.43 255.923 326.445 255.584 336.173C255.471 340.319 255.584 341.59 256.149 341.59C257.56 341.59 263.374 344.851 266.873 347.615L270.373 350.434L276.469 350.378C280.872 350.378 282.227 350.212 281.38 349.826Z" fill="#251819"/>
<path d="M225.499 261.664C228.265 260.614 235.716 258.127 241.981 256.082C250.843 253.208 253.439 252.157 253.439 251.384C253.439 250.776 254.399 250.168 256.375 249.449L259.366 248.454L254.286 248.178C251.464 248.012 248.867 247.68 248.472 247.459C247.118 246.575 247.738 244.861 249.601 244.088C250.617 243.701 251.972 243.148 252.593 242.927C253.383 242.595 252.311 242.319 249.037 242.098C245.819 241.877 244.182 241.545 243.844 240.992C243.11 239.831 243.11 239.61 244.295 238.229C245.086 237.289 246.948 236.681 253.157 235.41C257.504 234.47 261.963 233.641 263.035 233.475C264.108 233.309 265.124 233.033 265.293 232.867C265.914 232.148 252.762 233.254 247.005 234.359C239.723 235.741 238.199 235.575 238.199 233.309C238.199 230.601 239.836 229.44 245.932 228.003C248.98 227.284 253.383 226.4 255.697 226.013C258.012 225.626 259.987 225.295 260.1 225.184C260.213 225.129 259.197 222.973 257.899 220.486C256.6 217.943 254.117 212.747 252.311 208.934C245.368 194.065 239.667 182.955 238.989 182.955C238.143 182.955 201.736 198.321 196.825 200.753C194.736 201.748 193.382 202.854 193.043 203.683C192.422 205.341 191.519 205.396 189.656 203.959C188.866 203.351 188.019 202.854 187.794 202.854C187.568 202.854 186.665 202.356 185.818 201.748C183.334 200.035 161.772 187.985 161.49 188.206C161.264 188.482 163.861 193.733 168.659 202.577C170.465 205.949 174.303 213.19 177.238 218.772C180.23 224.41 182.939 228.832 183.391 228.832C183.786 228.832 186.1 227.948 188.527 226.897C193.495 224.687 194.454 224.576 195.244 225.958C196.26 227.782 194.68 229.551 189.713 232.148C186.89 233.696 185.479 234.691 186.1 234.802C186.665 234.857 191.124 234.359 196.035 233.641C205.292 232.37 206.025 232.425 206.025 234.636C206.025 236.46 204.614 237.344 198.123 239.61C188.584 242.927 188.076 243.148 189.487 243.148C190.954 243.203 197.841 241.821 199.816 241.103C200.607 240.826 202.413 240.439 203.937 240.218C206.364 239.831 206.646 239.942 207.098 241.103C207.775 242.927 207.38 243.535 204.445 244.972C202.413 245.967 201.848 246.52 201.961 247.404C202.131 248.509 199.76 250.997 198.01 251.66C197.615 251.771 197.389 251.992 197.559 252.157C197.954 252.489 205.292 256.579 208.735 258.403C210.767 259.509 211.501 260.117 210.993 260.448C210.485 260.725 210.71 260.891 211.67 260.891C212.46 260.891 214.097 261.499 215.339 262.272C218.274 264.041 219.403 263.986 225.499 261.664Z" fill="#251819"/>
<path d="M362.21 145.369C363 143.158 363.79 142.108 365.596 140.837C367.007 139.897 368.023 138.792 368.023 138.184C368.023 137.244 367.911 137.244 366.556 138.46C365.766 139.178 364.298 139.842 363.338 139.952C361.532 140.118 361.532 140.118 361.137 143.987C360.911 146.088 360.855 147.912 360.968 148.022C361.081 148.133 361.645 146.917 362.21 145.369Z" fill="#251819"/>
<path d="M361.137 133.098C361.25 130.556 361.476 127.295 361.702 125.747C362.097 123.204 362.266 122.983 363.959 122.652C364.975 122.431 366.33 121.823 366.951 121.27C367.854 120.496 368.306 120.386 369.096 120.883C369.999 121.436 370.225 121.159 371.015 118.617C371.579 117.014 371.975 113.919 371.975 111.763C371.975 108.446 371.692 107.341 370.112 104.412C368.023 100.377 364.919 97.8893 361.363 97.4471C359.274 97.1707 359.049 97.0049 359.331 95.8994C359.839 93.799 357.412 89.2113 354.364 86.5029C349.961 82.6338 346.461 81.5283 338.39 81.5283C332.237 81.5283 331.334 81.6389 328.512 82.9654C322.077 85.8949 318.916 90.151 318.916 95.7336C318.916 98.7184 318.86 98.8842 317.223 99.2158C316.32 99.4369 315.247 99.3816 314.908 99.2158C314.457 98.8842 314.457 99.1053 314.852 99.8791C316.263 102.422 323.827 105.904 326.536 105.241C327.665 104.964 330.036 102.753 332.406 99.7133C333.084 98.8842 349.114 98.2762 351.824 98.9947C353.009 99.3264 354.759 100.266 355.775 101.15L357.581 102.698L357.75 111.652L357.92 120.607L353.517 120.22C351.09 119.999 348.155 119.446 346.913 118.948C345.05 118.23 343.978 118.23 339.293 118.783C332.294 119.667 331.334 119.888 331.334 120.772C331.334 121.159 330.713 121.657 329.979 121.823C328.06 122.265 325.125 121.602 325.125 120.717C325.125 120.109 323.319 119.667 322.133 119.999C322.077 119.999 321.287 119.722 320.384 119.391C319.48 119.059 317.844 118.672 316.715 118.506L314.683 118.175L315.755 119.335C316.828 120.496 316.828 120.496 315.36 120.551C314.513 120.607 313.554 120.717 313.271 120.772C312.933 120.828 312.199 120.938 311.578 120.994C310.111 121.049 309.433 122.652 310.562 123.481C311.014 123.812 311.691 125.581 312.03 127.35C313.102 132.656 314.965 134.48 319.988 135.033C321.851 135.199 322.698 135.033 323.488 134.259C324.73 133.043 325.689 129.837 325.689 126.742C325.689 124.365 325.689 124.365 327.778 124.365H329.923L331.165 128.455C331.898 130.666 332.914 133.043 333.479 133.762C335.624 136.304 342.171 136.249 345.107 133.541C346.856 131.993 347.477 130.445 347.985 126.355L348.38 123.204L353.291 123.37L358.146 123.536L357.92 130.611L357.75 137.631H359.331H360.968L361.137 133.098ZM335.511 132.877C333.31 132.49 331.334 125.084 333.14 124.034C333.535 123.757 334.551 123.647 335.454 123.702C336.358 123.757 336.922 123.591 336.753 123.315C336.414 122.762 339.575 122.154 342.962 122.154C345.558 122.154 346.01 122.818 346.01 126.466C346.01 128.013 344.712 132.104 344.204 132.104C344.091 132.104 343.075 132.435 341.889 132.877C339.857 133.541 338.728 133.541 335.511 132.877ZM316.094 132.49C315.191 132.048 314.4 130.887 313.836 129.34C313.384 127.958 312.707 126.687 312.425 126.466C312.086 126.189 312.143 126.023 312.538 126.023C312.933 126.023 313.102 125.637 312.933 125.194C312.651 124.586 312.989 124.365 314.175 124.365C315.755 124.31 315.755 124.31 314.683 123.481C313.723 122.762 313.667 122.596 314.4 122.154C315.529 121.436 317.618 121.546 320.327 122.431L322.585 123.149L320.609 123.26C319.537 123.315 318.126 123.536 317.561 123.757C316.545 124.144 316.545 124.199 317.844 124.531C318.577 124.752 320.158 124.918 321.287 124.918C323.093 124.918 323.488 125.139 323.77 126.355C324.222 128.069 323.714 131.385 322.811 132.435C322.021 133.375 318.013 133.43 316.094 132.49Z" fill="#251819"/>
</g>
<defs>
<filter id="filter0_d_8_10" x="-1" y="0" width="586" height="576" filterUnits="userSpaceOnUse" color-interpolation-filters="sRGB">
<feFlood flood-opacity="0" result="BackgroundImageFix"/>
<feColorMatrix in="SourceAlpha" type="matrix" values="0 0 0 0 0 0 0 0 0 0 0 0 0 0 0 0 0 0 127 0" result="hardAlpha"/>
<feOffset dx="3" dy="6"/>
<feGaussianBlur stdDeviation="2"/>
<feColorMatrix type="matrix" values="0 0 0 0 0 0 0 0 0 0 0 0 0 0 0 0 0 0 0.3 0"/>
<feBlend mode="normal" in2="BackgroundImageFix" result="effect1_dropShadow_8_10"/>
<feBlend mode="normal" in="SourceGraphic" in2="effect1_dropShadow_8_10" result="shape"/>
</filter>
</defs>
</svg>
