<svg class="img-fluid" id="outputsvg" xmlns="http://www.w3.org/2000/svg"  width="692" height="646" viewBox="0 0 6920 6460"><g id="lULfFXkfqJYKkrkow2PAgY" fill="rgb(255,255,255)" style="transform: none;"><g style="transform: none;"><path id="piLKYdPkM" d="M0 3230 l0 -3230 3460 0 3460 0 0 3230 0 3230 -3460 0 -3460 0 0 -3230z m3719 2376 c-2 -2 -53 -18 -114 -36 -109 -32 -344 -127 -440 -177 -84 -44 -221 -131 -297 -189 -70 -53 -206 -192 -259 -264 -33 -46 -126 -200 -164 -273 -16 -32 -31 -53 -33 -48 -4 11 38 94 106 213 88 152 273 362 402 457 36 26 137 86 225 133 180 97 285 134 505 177 51 10 75 13 69 7z m796 -251 c50 -8 110 -21 135 -29 25 -9 34 -13 20 -10 -120 26 -541 28 -662 3 -172 -35 -353 -89 -453 -134 -331 -150 -517 -266 -665 -415 -116 -116 -206 -265 -251 -420 -57 -195 -69 -275 -69 -471 0 -138 4 -189 24 -287 28 -137 71 -249 123 -319 34 -45 32 -45 -21 12 -103 110 -173 234 -227 397 -64 198 -74 313 -38 483 47 227 118 375 301 632 111 155 148 198 148 170 0 -13 9 -17 39 -17 31 0 58 12 128 58 147 97 353 195 534 255 223 75 288 88 534 111 70 7 307 -5 400 -19z m-1942 -58 c-33 -35 -85 -101 -117 -145 -32 -45 -59 -82 -62 -82 -23 0 116 185 197 263 53 50 42 28 -18 -36z m-564 -212 c-62 -132 -120 -342 -148 -545 -7 -47 -17 -112 -22 -146 -5 -33 -9 -99 -9 -145 0 -91 26 -448 36 -489 4 -18 3 -21 -4 -10 -14 23 -60 217 -83 350 -18 103 -15 326 4 421 37 174 94 332 177 494 90 176 90 175 95 175 2 0 -19 -47 -46 -105z m2486 10 c178 -27 277 -48 346 -74 243 -88 363 -141 409 -180 l25 -21 -50 21 c-187 78 -389 142 -520 165 -55 9 -122 21 -150 27 -27 5 -138 11 -245 14 -163 4 -214 1 -315 -16 -66 -11 -165 -25 -220 -32 -56 -6 -149 -27 -210 -46 -138 -45 -352 -141 -405 -183 -22 -17 -40 -29 -40 -26 0 13 162 127 225 158 90 45 347 132 450 152 264 51 529 66 700 41z m-2179 -183 c-16 -30 -26 -60 -64 -182 -62 -199 -82 -339 -82 -584 0 -228 16 -332 66 -442 13 -29 47 -111 74 -181 28 -70 62 -145 76 -166 56 -85 159 -209 236 -287 l83 -83 -64 44 c-114 79 -192 160 -283 295 -87 130 -127 208 -166 319 -46 134 -63 206 -92 396 -15 96 -12 256 6 360 24 142 98 333 203 527 19 35 25 19 7 -16z m1544 -37 c0 -29 4 -35 21 -35 34 0 59 -19 59 -45 l0 -25 152 0 c83 0 181 -5 217 -10 330 -51 486 -93 705 -187 45 -19 107 -46 140 -59 32 -13 73 -35 91 -48 18 -14 64 -46 101 -72 212 -145 402 -344 510 -534 23 -39 16 -34 -52 40 -136 147 -156 164 -426 367 -46 35 -108 78 -138 96 -30 18 -73 45 -96 59 -78 50 -287 150 -388 185 -324 113 -469 143 -706 143 -260 0 -435 -41 -685 -161 -163 -78 -286 -186 -432 -379 -102 -135 -140 -264 -151 -500 l-6 -135 -13 85 c-9 63 -10 103 -3 155 40 273 110 457 232 607 78 95 263 251 366 307 122 67 258 121 377 152 61 15 113 28 118 28 4 1 7 -15 7 -34z m425 -260 c148 -27 343 -85 460 -138 217 -99 516 -331 698 -542 l52 -60 -50 42 c-27 23 -68 60 -90 83 -46 48 -165 134 -245 178 -30 16 -100 55 -154 87 -181 105 -468 217 -642 250 -149 28 -399 17 -589 -26 -258 -59 -535 -223 -535 -316 0 -19 5 -33 12 -33 7 0 -11 -24 -38 -52 -104 -108 -141 -192 -166 -378 -12 -90 -12 -93 -19 -50 -12 81 32 274 88 385 31 59 94 156 137 207 17 20 48 57 69 82 49 59 213 167 297 196 36 12 97 33 135 47 39 14 99 30 135 38 90 18 346 18 445 0z m-2261 -69 c-3 -15 -8 -25 -11 -23 -2 3 -1 17 3 31 3 15 8 25 11 23 2 -3 1 -17 -3 -31z m2149 -135 c74 -10 196 -45 262 -76 17 -7 55 -23 85 -35 60 -24 263 -130 295 -154 11 -9 -36 12 -104 45 -237 116 -290 136 -446 171 -91 20 -446 17 -554 -5 -46 -10 -86 -16 -87 -14 -6 6 130 45 196 56 78 14 239 29 260 25 8 -2 50 -8 93 -13z m-1844 -72 c-6 -41 -17 -112 -24 -159 l-12 -85 -2 70 c0 39 3 86 8 105 5 19 14 61 21 93 18 79 23 66 9 -24z m-349 -184 c-6 -194 -13 -151 -10 65 1 75 9 156 15 148 1 -2 -1 -97 -5 -213z m2176 105 c83 -14 220 -55 289 -85 58 -26 159 -65 166 -65 10 0 177 -97 205 -118 161 -125 374 -326 374 -353 0 -5 -16 -9 -35 -9 -32 0 -35 -2 -35 -31 0 -30 -2 -28 -57 42 -79 103 -221 256 -259 279 -17 11 -45 20 -63 20 -29 0 -31 -2 -31 -39 0 -35 10 -49 103 -153 117 -130 141 -161 186 -240 l32 -58 -30 0 c-30 0 -31 -1 -31 -47 -1 -58 -6 -51 -59 81 -62 155 -129 238 -329 410 -210 179 -461 276 -717 276 -146 0 -325 -31 -437 -75 -68 -27 -40 -6 62 45 133 67 189 88 290 110 97 21 283 26 376 10z m819 -224 c44 -35 107 -90 140 -121 l60 -57 -63 54 c-35 29 -94 76 -131 104 -38 27 -86 65 -107 83 -74 63 15 8 101 -63z m-925 -9 c47 -13 119 -41 160 -62 83 -42 215 -129 233 -155 7 -9 51 -52 100 -94 166 -148 265 -316 331 -557 74 -278 75 -414 0 -764 -51 -239 -88 -336 -220 -576 -45 -82 -98 -161 -133 -200 -32 -35 -70 -83 -85 -107 -34 -54 -193 -222 -271 -286 -33 -27 -80 -68 -105 -91 -125 -119 -400 -262 -651 -339 -218 -68 -293 -83 -439 -90 l-115 -5 105 19 c58 10 132 25 165 33 33 8 89 20 125 28 83 16 254 79 333 122 117 64 252 144 326 193 40 27 97 64 125 83 137 91 394 342 479 468 170 254 285 651 302 1043 8 181 -4 337 -40 495 -51 231 -201 462 -402 620 -194 153 -367 221 -593 233 -95 5 -115 8 -85 13 75 14 265 1 355 -24z m-2637 -508 c53 -107 121 -230 153 -274 235 -329 613 -598 969 -690 219 -57 635 -59 860 -5 130 31 28 -14 -126 -56 -179 -48 -281 -64 -425 -64 -308 0 -625 111 -898 314 -66 49 -97 66 -121 66 -27 0 -41 11 -96 73 -86 96 -113 132 -191 257 -105 169 -134 228 -176 360 -76 238 -130 453 -73 294 16 -44 71 -168 124 -275z m225 177 c5 -6 29 -49 52 -96 52 -101 161 -273 200 -315 15 -16 37 -46 49 -65 11 -19 65 -79 118 -134 160 -160 394 -305 615 -377 67 -22 138 -39 164 -39 l45 0 -3 36 c-3 35 -5 36 -93 73 -98 40 -269 137 -327 185 -83 70 -281 344 -333 462 -36 81 -31 79 18 -6 118 -207 281 -396 432 -499 97 -66 239 -128 375 -163 109 -29 126 -30 330 -31 199 -2 219 0 275 20 55 21 58 21 37 4 -71 -61 -393 -121 -647 -123 -127 0 -260 18 -379 53 -119 35 -407 199 -503 285 -50 45 -199 230 -266 328 -92 137 -194 373 -211 486 l-7 45 26 -59 c13 -32 29 -64 33 -70z m2739 -118 c17 -18 42 -49 55 -68 12 -19 35 -51 49 -70 84 -111 145 -256 186 -440 34 -154 36 -345 3 -500 -30 -148 -90 -323 -146 -427 -26 -48 -62 -116 -80 -151 -19 -34 -52 -87 -74 -117 -51 -69 -216 -235 -295 -297 -111 -87 -336 -222 -405 -243 -14 -4 -57 -22 -95 -41 -39 -18 -118 -47 -175 -64 -289 -85 -350 -102 -415 -116 -129 -27 -299 -46 -432 -47 -119 -2 -156 3 -141 18 3 3 86 10 184 16 448 25 857 141 1097 311 352 249 594 506 754 798 44 81 106 281 123 396 11 76 13 338 4 397 -6 34 -9 37 -39 37 l-32 0 -11 138 c-6 75 -18 164 -27 197 -23 87 -106 250 -167 325 l-52 65 49 -42 c28 -22 64 -56 82 -75z m831 -155 c45 -70 146 -389 179 -563 21 -115 23 -406 4 -550 -31 -229 -117 -508 -211 -680 -90 -165 -105 -191 -170 -285 l-55 -80 -3 40 c-2 22 -8 42 -13 46 -5 3 10 35 34 71 87 129 214 379 256 503 11 33 31 92 44 131 78 222 94 529 47 889 -28 214 -58 329 -119 454 -17 36 -31 66 -31 68 0 11 12 -3 38 -44z m512 -423 c60 -242 80 -377 80 -539 0 -80 -23 -277 -33 -287 -2 -2 -7 96 -10 218 -8 270 -21 413 -53 578 -24 127 -81 325 -107 377 -8 15 -17 39 -21 53 -3 14 15 -18 40 -70 37 -75 58 -142 104 -330z m-608 313 c69 -135 127 -357 128 -493 1 -113 -12 -290 -21 -290 -19 0 -28 50 -38 235 -7 113 -21 242 -36 320 -34 180 -40 205 -58 249 -10 21 -17 40 -17 42 0 13 12 -4 42 -63z m-766 -222 c23 -90 26 -117 21 -190 -4 -47 -13 -111 -21 -141 -14 -55 -14 -54 -15 95 -1 174 -5 195 -35 195 -20 0 -21 6 -23 88 -2 76 -12 135 -37 217 -4 11 14 -20 39 -70 25 -51 56 -136 71 -194z m685 109 c66 -261 78 -527 35 -752 -14 -70 -34 -162 -46 -205 -23 -80 -100 -286 -106 -281 -1 2 13 50 32 108 78 236 104 399 104 658 0 188 -15 351 -44 492 -9 41 -16 77 -15 80 1 10 32 -65 40 -100z m-961 -250 c-12 -128 -21 -154 -50 -158 -13 -2 -30 -11 -38 -20 -7 -10 -11 -12 -9 -7 70 154 77 177 84 285 7 91 7 93 15 45 4 -27 3 -93 -2 -145z m-930 50 c20 -6 21 -8 5 -8 -11 0 -29 3 -40 8 -25 11 1 11 35 0z m358 4 c-16 -15 -122 -34 -193 -33 -145 2 -149 16 -5 19 74 1 146 6 160 10 31 10 45 12 38 4z m-2206 -365 c53 -64 114 -131 136 -150 103 -90 300 -233 417 -303 207 -123 274 -151 495 -206 123 -30 261 -42 425 -37 150 5 195 11 385 50 118 25 232 52 254 61 48 20 66 20 66 1 0 -8 -9 -15 -20 -15 -12 0 -53 -18 -93 -39 -91 -50 -238 -106 -316 -122 -80 -15 -398 -6 -511 15 -114 21 -391 108 -520 163 -183 78 -336 168 -445 263 -170 148 -269 255 -350 379 -41 64 -62 108 -32 70 7 -8 56 -67 109 -130z m2557 -41 c-2 -2 -20 -16 -39 -33 l-35 -30 29 33 c17 17 34 32 40 32 5 0 7 -1 5 -2z m-274 -177 c-17 -14 -139 -59 -232 -84 -276 -76 -436 -78 -710 -11 -128 31 -258 72 -251 80 2 1 43 -9 92 -22 166 -44 294 -57 523 -51 228 5 342 21 477 67 87 29 116 35 101 21z m444 -73 c-43 -72 -163 -213 -225 -262 -28 -23 -90 -74 -137 -114 -197 -166 -378 -253 -647 -310 -214 -46 -351 -58 -491 -43 -233 24 -490 71 -586 107 -136 50 -297 133 -388 201 -98 73 -132 110 -65 70 81 -47 273 -143 355 -176 44 -19 89 -38 100 -44 42 -22 205 -69 325 -93 128 -26 301 -43 447 -44 78 0 83 1 105 29 32 40 102 77 178 96 183 46 327 100 430 160 65 38 80 51 80 71 0 19 5 24 24 24 48 0 465 298 504 360 7 11 14 20 17 20 2 0 -9 -24 -26 -52z m147 -52 c-107 -196 -319 -430 -495 -545 -138 -90 -419 -207 -611 -254 -139 -35 -311 -58 -475 -64 -163 -5 -171 -5 -195 15 l-25 21 77 1 c42 0 110 4 150 10 247 33 312 43 393 60 86 19 115 26 320 85 117 34 298 125 405 205 188 141 326 273 364 350 25 48 130 209 135 205 2 -2 -18 -42 -43 -89z m-2226 17 c19 -13 31 -23 27 -23 -10 0 -137 80 -137 87 0 5 50 -24 110 -64z m2436 21 c-32 -91 -100 -207 -194 -329 -171 -224 -269 -310 -472 -418 -41 -22 -91 -50 -110 -63 -47 -31 -427 -169 -550 -199 -203 -51 -279 -59 -555 -59 -292 0 -351 9 -535 79 -52 20 -84 33 -70 30 252 -58 325 -66 610 -67 240 0 373 9 483 33 40 9 47 15 47 35 0 18 7 25 28 29 131 28 383 115 501 175 168 85 269 151 391 256 159 136 332 348 415 506 24 47 29 43 11 -8z m-657 32 c-20 -20 -159 -106 -221 -136 -98 -48 -292 -115 -383 -132 -45 -8 -159 -13 -320 -13 -249 0 -250 0 -380 33 -148 37 -143 35 -285 92 -58 23 -117 50 -130 61 -14 10 13 2 60 -20 160 -73 319 -120 438 -128 l92 -6 0 47 c0 41 -2 46 -22 47 -13 0 -32 5 -43 10 -22 10 -22 10 140 -18 126 -21 468 -21 589 1 174 31 327 82 415 138 40 25 62 35 50 24z m1097 -631 c-36 -61 -43 -58 -9 4 16 27 30 48 32 46 2 -2 -9 -25 -23 -50z"></path></g></g><g id="l2S5HPbIPaLc8kqg71If6yh" fill="rgb(68,188,219)" style="transform: none;"><g style="transform: none;"><path id="pPUCtDxzp" d="M3970 5395 c-8 -2 -32 -6 -52 -10 -24 -4 -38 -11 -38 -20 0 -17 11 -18 88 -9 42 6 52 10 52 25 0 18 -12 21 -50 14z"></path><path id="pQKBdNtjG" d="M3713 5348 c-45 -15 -43 -38 2 -38 31 0 35 3 35 25 0 14 -1 25 -2 24 -2 -1 -18 -6 -35 -11z"></path><path id="pWWzSDKJJ" d="M3583 5308 c-41 -13 -44 -38 -5 -38 47 0 72 11 72 31 0 21 -17 23 -67 7z"></path><path id="pxhGPdbzJ" d="M2840 5280 l-35 -29 38 -1 c35 0 37 2 37 30 0 17 -1 30 -3 30 -1 0 -18 -13 -37 -30z"></path><path id="pazSDuYXb" d="M4840 5271 c0 -25 5 -30 53 -45 28 -9 65 -23 81 -31 16 -9 31 -13 33 -11 5 5 -19 22 -104 76 l-63 40 0 -29z"></path><path id="pJ0x71Tzb" d="M3391 5237 c-62 -25 -78 -47 -35 -47 51 0 94 22 94 47 0 13 -1 23 -2 23 -2 0 -27 -11 -57 -23z"></path><path id="pALvMNRCv" d="M4048 5123 c-10 -2 -18 -11 -18 -19 0 -10 13 -14 45 -14 38 0 45 3 45 20 0 15 -6 20 -27 19 -16 -1 -36 -3 -45 -6z"></path><path id="peGfkST9O" d="M4490 5110 c0 -16 7 -20 35 -20 40 0 49 24 13 34 -38 10 -48 7 -48 -14z"></path><path id="pwfFgMdgN" d="M3870 5103 c-99 -16 -130 -25 -130 -40 0 -13 8 -14 48 -9 26 3 71 9 100 12 42 6 52 10 52 25 0 19 -13 21 -70 12z"></path><path id="pheyhI3Iw" d="M3668 5063 c-33 -8 -20 -33 17 -33 28 0 35 4 35 20 0 20 -14 23 -52 13z"></path><path id="pSraJxzyB" d="M3471 4997 c-120 -44 -150 -67 -87 -67 20 0 36 5 36 10 0 6 14 10 30 10 17 0 30 5 30 10 0 6 14 10 30 10 17 0 30 5 30 10 0 6 11 10 25 10 20 0 25 5 25 25 0 14 -1 25 -2 24 -2 0 -54 -20 -117 -42z"></path><path id="p7XtJP5tt" d="M3800 4990 c0 -21 10 -24 48 -14 36 10 27 34 -13 34 -28 0 -35 -4 -35 -20z"></path><path id="pqQ64BwtJ" d="M4155 4970 l-20 -9 20 0 c11 0 27 4 35 9 13 9 13 10 0 9 -8 0 -24 -4 -35 -9z"></path><path id="pr81RfKWF" d="M3590 4960 c0 -5 -10 -10 -22 -10 -46 0 -68 -12 -68 -35 l0 -23 80 26 c85 28 106 52 45 52 -19 0 -35 -4 -35 -10z"></path><path id="p5VkXawhC" d="M4048 4963 c-10 -2 -18 -11 -18 -20 0 -11 6 -14 23 -9 12 3 28 6 35 6 6 0 12 7 12 15 0 15 -17 17 -52 8z"></path><path id="p17hC3IVfM" d="M4820 4957 c0 -8 16 -18 35 -24 33 -11 35 -10 35 13 0 21 -5 24 -35 24 -22 0 -35 -5 -35 -13z"></path><path id="p10e4sKH13" d="M3908 4953 c-10 -2 -18 -11 -18 -19 0 -17 -37 -19 -42 -3 -6 19 -108 -9 -108 -28 0 -13 9 -15 55 -9 54 6 55 6 55 -19 0 -20 5 -25 25 -25 14 0 25 -4 25 -10 0 -5 16 -10 35 -10 19 0 35 4 35 10 0 13 -34 30 -59 30 -12 0 -21 2 -21 5 0 11 41 45 55 45 8 0 15 9 15 20 0 20 -14 23 -52 13z"></path><path id="pzZZHPkpR" d="M3586 4877 c-70 -26 -85 -47 -32 -47 20 0 36 5 36 10 0 6 14 10 30 10 25 0 30 4 30 25 0 14 -1 25 -2 24 -2 0 -30 -10 -62 -22z"></path><path id="pvWyw7Ujn" d="M5240 4871 c0 -29 3 -31 36 -31 39 0 38 9 -6 40 l-30 21 0 -30z"></path><path id="pJaJzWJTN" d="M3200 4860 l-35 -29 38 -1 c35 0 37 2 37 30 0 17 -1 30 -3 30 -1 0 -18 -13 -37 -30z"></path><path id="pTwFKOrmD" d="M5050 4877 c0 -8 16 -18 35 -24 33 -11 35 -10 35 13 0 21 -5 24 -35 24 -22 0 -35 -5 -35 -13z"></path><path id="p6TaR3lki" d="M5152 4838 c3 -7 19 -18 36 -25 31 -13 32 -12 32 12 0 22 -4 25 -36 25 -23 0 -34 -4 -32 -12z"></path><path id="p6bFCk3wv" d="M3403 4799 c-51 -25 -55 -39 -10 -39 42 0 60 12 55 39 l-3 21 -42 -21z"></path><path id="ph8ptyE0R" d="M3070 4760 l-35 -29 38 -1 c35 0 37 2 37 30 0 17 -1 30 -3 30 -1 0 -18 -13 -37 -30z"></path><path id="p12TLEsgQU" d="M4320 4770 c0 -16 7 -20 35 -20 40 0 49 24 13 34 -38 10 -48 7 -48 -14z"></path><path id="p14gOGf0x1" d="M5400 4743 c0 -38 1 -39 90 -92 50 -30 93 -51 96 -48 4 3 -17 29 -46 58 -41 41 -54 49 -62 38 -8 -11 -9 -11 -5 2 5 16 -9 33 -55 68 -16 12 -18 10 -18 -26z"></path><path id="pdRbt2Jqv" d="M4450 4750 c0 -16 7 -20 35 -20 40 0 49 24 13 34 -38 10 -48 7 -48 -14z"></path><path id="pJVSBWqRP" d="M3860 4730 c0 -21 10 -24 48 -14 36 10 27 34 -13 34 -28 0 -35 -4 -35 -20z"></path><path id="pJIzhatod" d="M4170 4736 c0 -15 11 -18 115 -36 33 -5 72 -13 88 -16 23 -5 27 -3 27 14 0 16 -8 22 -32 26 -18 3 -60 10 -92 16 -81 14 -106 13 -106 -4z"></path><path id="pkRkpq9e9" d="M4620 4720 c0 -16 7 -20 35 -20 39 0 46 14 16 30 -31 16 -51 12 -51 -10z"></path><path id="pYJFsWAT0" d="M4420 4686 c0 -13 28 -26 58 -26 6 0 12 9 12 20 0 16 -7 20 -35 20 -23 0 -35 -5 -35 -14z"></path><path id="p17fjoT3ei" d="M3115 4604 c-44 -36 -91 -77 -103 -92 -44 -50 -142 -184 -142 -193 0 -5 11 -9 25 -9 15 0 25 6 25 14 0 8 7 16 15 20 8 3 15 12 15 21 0 8 5 15 10 15 6 0 10 9 10 20 0 11 7 20 15 20 10 0 15 10 15 30 0 25 4 30 25 30 16 0 25 6 25 15 0 8 7 15 15 15 8 0 15 7 15 15 0 8 8 15 18 15 25 0 42 19 42 47 0 19 5 23 30 23 27 0 30 3 30 30 0 17 -1 30 -3 30 -1 0 -39 -29 -82 -66z"></path><path id="pmcygNMdp" d="M3978 4663 c-10 -2 -18 -11 -18 -19 0 -11 15 -14 60 -14 44 0 60 4 60 14 0 21 -55 32 -102 19z"></path><path id="p1zOtsvDf" d="M2938 4630 l-28 -35 26 -3 c33 -4 36 -1 32 39 l-3 34 -27 -35z"></path><path id="pOQLrYuIK" d="M3810 4645 c-36 -8 -96 -24 -135 -38 -38 -14 -99 -35 -135 -47 -62 -21 -242 -131 -269 -164 -12 -14 -9 -16 23 -16 25 0 36 4 36 15 0 8 9 15 20 15 13 0 20 7 20 20 0 16 7 20 30 20 17 0 30 5 30 10 0 6 7 10 15 10 8 0 15 7 15 15 0 8 7 15 17 15 26 0 123 33 123 42 0 4 11 8 24 8 14 0 31 6 38 13 13 12 67 27 186 48 50 10 62 16 62 30 0 22 -8 22 -100 4z"></path><path id="p16tPDWY8X" d="M4220 4641 c0 -15 13 -21 73 -31 136 -23 147 -23 147 -7 0 17 -15 22 -125 42 -100 18 -95 19 -95 -4z"></path><path id="plYZAiEj4" d="M4930 4625 c0 -22 4 -25 36 -25 44 0 42 18 -4 37 -31 13 -32 12 -32 -12z"></path><path id="p1GV8Y0LPD" d="M4640 4617 c0 -8 16 -18 35 -24 33 -11 35 -10 35 13 0 21 -5 24 -35 24 -22 0 -35 -5 -35 -13z"></path><path id="pbLSXO7wt" d="M4450 4594 c0 -21 5 -24 34 -24 19 0 36 -5 38 -10 2 -6 21 -13 43 -17 22 -3 42 -9 45 -13 8 -11 106 -40 134 -40 14 0 26 4 26 10 0 13 -33 29 -104 51 -34 10 -96 29 -138 43 l-78 24 0 -24z"></path><path id="pgWWfVjDC" d="M4810 4560 c0 -7 240 -136 312 -168 5 -2 8 8 8 22 0 23 -4 26 -35 26 -27 0 -35 4 -35 18 0 21 -96 72 -135 72 -15 0 -25 6 -25 14 0 8 -7 17 -16 20 -25 9 -74 7 -74 -4z"></path><path id="pooe0VNv7" d="M5190 4515 c0 -18 7 -26 24 -31 14 -3 27 -12 30 -20 3 -8 19 -14 36 -14 23 0 30 -4 30 -20 0 -11 7 -20 15 -20 8 0 15 -4 15 -10 0 -5 9 -10 20 -10 11 0 20 -7 20 -15 0 -8 7 -15 15 -15 8 0 15 -4 15 -10 0 -5 14 -10 30 -10 25 0 30 -4 30 -25 0 -20 5 -25 25 -25 15 0 25 -6 25 -14 0 -8 3 -21 6 -29 7 -19 -30 -57 -55 -57 -10 0 -21 9 -24 20 -3 12 -14 20 -26 20 -12 0 -21 6 -21 15 0 8 -9 15 -20 15 -11 0 -20 7 -20 15 0 11 -11 15 -36 15 -19 0 -33 -4 -30 -8 3 -5 35 -31 71 -58 194 -144 253 -193 328 -272 45 -48 122 -126 171 -174 48 -49 102 -105 118 -125 l30 -38 -8 30 c-13 55 -134 279 -199 370 -121 169 -296 325 -554 496 -55 35 -61 36 -61 4z"></path><path id="pGKYL5WNr" d="M3930 4510 c0 -21 16 -25 58 -14 39 11 27 34 -18 34 -33 0 -40 -3 -40 -20z"></path><path id="p12OZgXkWv" d="M4200 4516 c0 -9 19 -18 50 -25 67 -14 70 -14 70 8 0 14 -10 20 -37 25 -60 9 -83 7 -83 -8z"></path><path id="pb8mcPDPO" d="M2860 4474 c0 -39 9 -38 40 6 l21 30 -30 0 c-29 0 -31 -3 -31 -36z"></path><path id="pfGITBemk" d="M3743 4497 c-31 -8 -43 -16 -43 -29 0 -10 -5 -18 -12 -18 -6 0 -9 -2 -7 -5 3 -2 40 5 83 15 43 11 80 20 82 20 2 0 4 7 4 15 0 17 -41 18 -107 2z"></path><path id="pSmIb2Ni7" d="M4810 4465 c0 -16 6 -25 15 -25 8 0 15 -4 15 -10 0 -5 16 -10 35 -10 44 0 44 10 3 35 -59 36 -68 37 -68 10z"></path><path id="pUK8DK0KB" d="M4018 4454 c-10 -3 -18 -12 -18 -20 0 -10 13 -14 48 -14 26 0 71 -3 100 -6 43 -6 52 -4 52 9 0 8 -11 18 -25 21 -37 9 -138 16 -157 10z"></path><path id="puYBE3QQE" d="M2793 4415 c-11 -33 -10 -35 13 -35 21 0 24 5 24 35 0 22 -5 35 -13 35 -8 0 -18 -16 -24 -35z"></path><path id="p1D95dGvm9" d="M3898 4443 c-36 -9 -20 -33 22 -33 33 0 40 3 40 20 0 20 -20 24 -62 13z"></path><path id="p9mPbadv2" d="M3790 4430 c-19 -4 -52 -11 -72 -14 -24 -4 -38 -12 -38 -21 0 -18 20 -19 111 -4 56 10 69 15 69 30 0 20 -13 22 -70 9z"></path><path id="p1FXzylVzH" d="M4520 4430 c0 -12 33 -30 54 -30 9 0 16 9 16 20 0 16 -7 20 -35 20 -19 0 -35 -4 -35 -10z"></path><path id="p1CGV1BCd7" d="M4250 4410 c0 -16 7 -20 35 -20 19 0 35 -4 35 -10 0 -5 16 -10 35 -10 56 0 43 25 -23 44 -75 21 -82 20 -82 -4z"></path><path id="pHcrMEjYQ" d="M4920 4395 c0 -14 5 -25 11 -25 6 0 17 -7 25 -15 9 -8 29 -15 45 -15 22 0 29 -5 29 -20 0 -13 7 -20 20 -20 11 0 20 -7 20 -15 0 -8 8 -15 19 -15 10 0 21 -9 24 -20 4 -15 14 -20 36 -20 26 0 31 -4 31 -25 0 -22 4 -25 38 -25 l37 1 -35 30 c-81 71 -119 100 -200 153 -46 31 -88 56 -92 56 -4 0 -8 -11 -8 -25z"></path><path id="psa3ekDzp" d="M3930 4370 c0 -18 7 -20 80 -20 73 0 80 2 80 20 0 18 -7 20 -80 20 -73 0 -80 -2 -80 -20z"></path><path id="pYEzzVzpG" d="M3850 4360 c0 -21 10 -24 48 -14 36 10 27 34 -13 34 -28 0 -35 -4 -35 -20z"></path><path id="pFKX5eKlw" d="M4100 4366 c0 -13 28 -26 58 -26 6 0 12 9 12 20 0 16 -7 20 -35 20 -23 0 -35 -5 -35 -14z"></path><path id="pivxBGRN1" d="M4410 4360 c0 -13 7 -20 20 -20 11 0 20 -4 20 -10 0 -5 16 -10 35 -10 47 0 44 15 -7 40 -53 25 -68 25 -68 0z"></path><path id="pRRd2EIE4" d="M4680 4370 c0 -10 38 -32 85 -50 22 -8 25 -7 25 14 0 15 -9 27 -25 34 -31 15 -85 16 -85 2z"></path><path id="p18YHA7cQ8" d="M3695 4357 c-27 -5 -52 -13 -55 -17 -3 -4 -25 -10 -50 -13 -24 -3 -46 -11 -48 -16 -6 -19 -32 -12 -32 9 0 24 -3 24 -40 5 -34 -18 -39 -35 -10 -35 13 0 20 -7 20 -19 0 -18 5 -17 83 9 45 15 96 30 112 33 17 3 56 11 88 17 37 8 57 16 57 26 0 17 -48 17 -125 1z"></path><path id="pPPpKlIaF" d="M4180 4356 c0 -13 28 -26 58 -26 6 0 12 9 12 20 0 16 -7 20 -35 20 -23 0 -35 -5 -35 -14z"></path><path id="p15lqNjXrj" d="M5170 4362 c0 -8 52 -42 64 -42 3 0 6 11 6 25 0 22 -4 25 -35 25 -19 0 -35 -4 -35 -8z"></path><path id="p18KZXfH2J" d="M2772 4343 c-5 -10 -12 -40 -16 -68 -6 -44 -5 -48 7 -30 16 23 37 81 37 101 0 20 -18 17 -28 -3z"></path><path id="pNWzzMt1i" d="M4280 4337 c0 -9 30 -23 78 -36 42 -13 124 -45 181 -72 57 -27 105 -49 107 -49 2 0 4 11 4 25 0 16 -6 25 -16 25 -8 0 -22 7 -30 15 -8 8 -34 20 -57 27 -23 7 -48 18 -55 25 -7 7 -27 13 -43 13 -16 0 -29 4 -29 8 0 10 -81 32 -115 32 -14 0 -25 -6 -25 -13z"></path><path id="pUxBxmGa7" d="M3793 4288 c-46 -10 -61 -38 -20 -38 58 0 97 13 97 31 0 21 -12 22 -77 7z"></path><path id="p7WYKrecH" d="M4610 4275 c0 -16 6 -25 16 -25 8 0 22 -7 30 -15 16 -16 84 -21 84 -6 0 8 -110 71 -124 71 -3 0 -6 -11 -6 -25z"></path><path id="pdrJ6q9Jv" d="M4840 4292 c0 -8 141 -92 154 -92 3 0 6 11 6 24 0 26 -16 36 -61 36 -22 0 -29 5 -29 20 0 16 -7 20 -35 20 -19 0 -35 -4 -35 -8z"></path><path id="pNUDUVPhQ" d="M4170 4272 c0 -17 9 -21 62 -27 34 -4 68 -13 75 -21 8 -7 36 -16 63 -20 28 -4 50 -10 50 -15 0 -5 16 -9 35 -9 68 0 39 23 -75 60 -104 33 -123 38 -167 45 -38 6 -43 5 -43 -13z"></path><path id="pH1Gu7Mbt" d="M3159 4264 c-9 -11 -35 -47 -58 -81 l-42 -63 31 0 c20 0 30 5 30 15 0 8 5 15 10 15 6 0 10 7 10 15 0 8 5 15 10 15 6 0 10 6 10 14 0 8 5 16 11 18 6 2 9 19 7 37 -3 32 -4 32 -19 15z"></path><path id="plAiXNF4F" d="M3668 4263 c-33 -8 -20 -33 17 -33 28 0 35 4 35 20 0 20 -14 23 -52 13z"></path><path id="p6yB696vY" d="M3323 4235 l-28 -24 32 -1 c17 0 33 -5 35 -12 3 -8 14 -6 36 7 40 24 41 35 2 35 -16 0 -30 5 -30 10 0 17 -17 11 -47 -15z"></path><path id="ptteIIoTs" d="M3573 4225 c-43 -18 -42 -35 2 -35 31 0 35 3 35 25 0 14 -1 25 -2 25 -2 -1 -18 -7 -35 -15z"></path><path id="p1D1GvFB6l" d="M2940 4205 c0 -18 -5 -25 -20 -25 -16 0 -20 -7 -20 -35 0 -43 9 -44 37 -2 12 17 32 44 43 60 l22 27 -31 0 c-26 0 -31 -4 -31 -25z"></path><path id="pY9HRbMWS" d="M4760 4196 c0 -13 6 -27 13 -29 6 -3 0 -6 -15 -6 -19 -1 -28 4 -28 14 0 10 -11 15 -35 15 -19 0 -35 -4 -35 -9 0 -8 132 -81 146 -81 10 0 3 49 -8 53 -7 3 -1 6 15 6 20 1 27 -4 27 -17 0 -18 37 -42 65 -42 8 0 15 -7 15 -15 0 -8 8 -15 19 -15 10 0 21 -9 24 -20 3 -11 1 -20 -4 -20 -5 0 -9 5 -9 10 0 6 -6 10 -14 10 -8 0 -16 7 -20 15 -3 9 -19 15 -41 15 -21 0 -34 -4 -30 -10 3 -5 47 -41 98 -79 51 -37 151 -123 222 -190 72 -66 133 -121 138 -121 4 0 7 13 7 30 0 46 23 28 84 -64 106 -160 161 -278 222 -471 80 -256 108 -494 109 -908 0 -158 1 -287 2 -287 7 0 43 83 61 140 27 86 42 207 42 345 0 190 -18 314 -80 566 -49 199 -67 254 -114 353 -31 65 -56 119 -56 121 0 2 -24 43 -52 91 -55 91 -131 181 -201 236 l-40 32 7 -49 8 -49 -75 90 c-41 49 -86 98 -101 107 -26 17 -26 17 -26 -6 0 -20 -4 -23 -35 -19 -29 3 -35 8 -35 27 0 19 6 24 33 27 32 3 32 3 -53 70 -78 62 -225 157 -242 158 -5 0 -8 -11 -8 -24z m260 -191 c0 -8 -7 -15 -15 -15 -8 0 -15 7 -15 15 0 8 7 15 15 15 8 0 15 -7 15 -15z m110 -110 c10 -12 10 -15 -4 -15 -9 0 -16 7 -16 15 0 8 2 15 4 15 2 0 9 -7 16 -15z"></path><path id="p10wyTi6j1" d="M5010 4191 c0 -5 20 -18 44 -30 25 -11 88 -50 140 -86 l96 -65 0 30 c0 20 -5 30 -15 30 -8 0 -15 5 -15 10 0 6 -9 10 -20 10 -11 0 -20 7 -20 15 0 8 -7 15 -15 15 -8 0 -15 5 -15 10 0 6 -11 10 -25 10 -16 0 -25 6 -25 15 0 10 -10 15 -30 15 -20 0 -30 5 -30 15 0 10 -11 15 -35 15 -19 0 -35 -4 -35 -9z"></path><path id="pXA39D1jo" d="M2296 4144 c-10 -75 -8 -104 8 -104 15 0 20 17 31 103 6 42 4 47 -13 47 -15 0 -21 -9 -26 -46z"></path><path id="p66gDP8eT" d="M4510 4166 c0 -25 39 -46 86 -46 13 0 24 -4 24 -10 0 -5 11 -10 25 -10 15 0 25 -6 25 -14 0 -15 21 -26 51 -26 10 0 19 -6 19 -13 0 -8 17 -22 37 -33 21 -10 46 -29 56 -41 10 -13 27 -23 38 -23 10 0 19 -7 19 -15 0 -9 8 -19 18 -22 9 -4 23 -15 30 -25 7 -10 22 -18 33 -18 10 0 19 -5 19 -12 0 -6 10 -22 22 -35 21 -22 21 -23 3 -43 -24 -27 -33 -25 -71 11 -23 22 -39 30 -60 27 l-28 -3 60 -65 c105 -113 174 -210 231 -329 67 -140 68 -143 98 -256 26 -98 62 -351 72 -511 10 -162 -25 -428 -74 -568 -13 -39 -33 -98 -44 -131 -43 -128 -155 -348 -254 -500 -29 -44 -63 -100 -75 -125 -12 -25 -39 -65 -59 -90 l-36 -45 35 25 c19 13 37 28 38 33 8 17 54 67 63 67 15 0 10 -36 -10 -61 -10 -13 -26 -40 -36 -59 -25 -49 -192 -254 -262 -322 -146 -142 -262 -247 -305 -278 -80 -56 -46 -45 58 20 187 114 434 338 519 470 23 36 62 90 86 120 59 72 137 188 186 275 106 186 135 250 176 386 93 298 111 417 111 714 1 274 -10 335 -115 665 -41 128 -59 169 -104 235 -62 93 -73 115 -54 115 18 0 96 -88 115 -130 49 -107 95 -180 115 -180 5 0 9 18 9 40 0 39 -23 98 -60 150 -10 14 -30 48 -45 75 -80 145 -215 286 -449 467 -32 24 -189 114 -211 120 -11 3 -44 15 -72 27 l-53 21 0 -24z"></path><path id="psezWiTSa" d="M2793 4145 c-11 -33 -10 -35 13 -35 21 0 24 5 24 35 0 22 -5 35 -13 35 -8 0 -18 -16 -24 -35z"></path><path id="pBmysnkzW" d="M3720 4150 c0 -21 10 -24 48 -14 36 10 27 34 -13 34 -28 0 -35 -4 -35 -20z"></path><path id="pk14leSlu" d="M3930 4156 c0 -14 27 -22 133 -41 32 -6 37 -5 37 12 0 16 -11 22 -64 31 -83 16 -106 15 -106 -2z"></path><path id="pUjaZiT18" d="M5260 4142 c0 -29 35 -72 58 -72 7 0 12 -6 12 -14 0 -7 7 -19 15 -26 20 -17 10 -30 -23 -30 -23 0 -8 -18 120 -142 169 -166 210 -219 285 -371 135 -273 169 -361 279 -739 3 -10 10 -18 15 -18 24 0 -16 236 -71 415 -56 186 -213 498 -306 609 -18 23 -62 77 -96 121 -70 89 -218 247 -260 277 l-28 19 0 -29z"></path><path id="p8LYvPKah" d="M3363 4115 l-28 -24 38 -1 c33 0 37 3 37 25 0 31 -11 32 -47 0z"></path><path id="p11ugjw3T5" d="M4110 4117 c0 -8 16 -18 35 -24 33 -11 35 -10 35 13 0 21 -5 24 -35 24 -22 0 -35 -5 -35 -13z"></path><path id="pwX9Q14Ge" d="M4190 4090 c0 -9 80 -50 96 -50 2 0 4 11 4 24 0 16 -7 26 -22 30 -36 9 -78 7 -78 -4z"></path><path id="pweRJ9nZu" d="M3687 4083 c-13 -3 -17 -11 -14 -24 4 -15 0 -19 -24 -19 -20 0 -29 5 -29 16 0 13 -7 15 -32 10 -39 -8 -36 -5 -44 -45 l-7 -32 54 8 c104 15 268 8 359 -16 205 -55 436 -208 575 -384 105 -131 188 -299 220 -442 60 -267 57 -480 -11 -829 -48 -248 -138 -481 -251 -649 -86 -127 -342 -378 -479 -468 -28 -19 -85 -56 -125 -83 -74 -49 -209 -129 -326 -193 -79 -43 -250 -106 -333 -122 -36 -8 -91 -20 -123 -28 -142 -35 -360 -63 -484 -63 -78 0 -123 -4 -117 -9 20 -21 186 -35 394 -35 248 1 279 6 549 90 251 77 526 220 651 339 25 23 72 64 105 91 78 64 237 232 271 286 15 24 53 72 85 107 94 104 253 405 303 573 93 311 128 646 90 849 -64 343 -172 557 -371 735 -49 42 -93 85 -100 94 -33 47 -256 177 -352 206 -61 18 -71 18 -71 -4 0 -14 15 -23 65 -37 36 -11 65 -23 65 -27 0 -4 9 -8 20 -8 11 0 20 -4 20 -10 0 -5 9 -10 20 -10 11 0 20 -4 20 -8 0 -5 17 -17 37 -28 20 -10 45 -27 55 -36 10 -10 26 -18 36 -18 9 0 22 -10 27 -22 6 -13 20 -27 33 -33 12 -5 22 -15 22 -20 0 -14 63 -75 77 -75 6 0 13 -7 17 -15 3 -8 12 -15 21 -15 21 0 19 -23 -5 -51 -15 -19 -19 -21 -20 -7 0 9 -10 25 -23 35 -13 10 -26 26 -30 36 -3 9 -13 17 -22 17 -8 0 -15 7 -15 16 0 9 -9 18 -20 21 -11 3 -20 9 -20 14 0 5 -8 9 -19 9 -10 0 -21 9 -24 20 -3 11 -14 20 -25 20 -11 0 -22 9 -25 20 -3 12 -14 20 -26 20 -12 0 -21 6 -21 15 0 8 -7 15 -15 15 -8 0 -15 5 -15 10 0 6 -11 10 -25 10 -14 0 -25 6 -25 13 0 18 -43 37 -80 37 -19 0 -30 5 -30 14 0 21 -155 63 -297 82 -43 5 -53 10 -53 25 0 19 -21 23 -63 12z"></path><path id="pEttZMyWY" d="M3880 4070 c0 -17 7 -20 40 -20 45 0 57 23 18 34 -42 11 -58 7 -58 -14z"></path><path id="p1DoJyicDF" d="M2570 4045 c0 -40 24 -49 34 -12 10 37 7 47 -14 47 -16 0 -20 -7 -20 -35z"></path><path id="pO0YfaOV4" d="M3282 4054 c-47 -37 -102 -113 -102 -141 0 -24 3 -22 51 21 28 25 55 46 60 46 5 0 9 5 9 10 0 6 -9 10 -20 10 -11 0 -20 5 -20 10 0 14 47 13 52 -2 3 -8 14 -6 36 7 40 24 41 35 3 35 -18 0 -31 6 -33 15 -2 11 -10 9 -36 -11z"></path><path id="pvetPMgmg" d="M3970 4060 c0 -16 7 -20 35 -20 40 0 49 24 13 34 -38 10 -48 7 -48 -14z"></path><path id="p124gFfcnQ" d="M3021 4043 c-5 -10 -20 -55 -34 -100 l-25 -83 24 0 c21 0 24 5 24 35 0 19 5 35 10 35 6 0 10 14 10 30 0 17 5 30 10 30 6 0 10 16 10 35 0 38 -14 46 -29 18z"></path><path id="paKxBZsmT" d="M2830 4005 c0 -22 5 -35 13 -35 8 0 18 16 24 35 11 33 10 35 -13 35 -21 0 -24 -5 -24 -35z"></path><path id="p24JWVxIb" d="M4320 4032 c0 -4 36 -28 80 -54 l80 -47 0 29 c0 28 -15 40 -51 40 -10 0 -19 6 -19 14 0 8 -7 17 -16 20 -22 9 -74 7 -74 -2z"></path><path id="pl979oJSi" d="M3100 4015 c0 -8 -4 -15 -10 -15 -5 0 -10 -16 -10 -35 0 -19 3 -35 8 -35 4 0 22 23 40 50 l32 50 -30 0 c-20 0 -30 -5 -30 -15z"></path><path id="pZ2asruN" d="M3460 3986 c0 -23 2 -24 35 -13 19 6 35 16 35 24 0 8 -13 13 -35 13 -30 0 -35 -3 -35 -24z"></path><path id="plKT2cKa4" d="M3359 3981 c-35 -11 -129 -84 -174 -135 -54 -62 -105 -147 -105 -174 1 -11 7 -6 18 14 9 17 43 62 76 101 59 71 108 106 210 148 27 12 51 26 53 32 4 11 -54 22 -78 14z"></path><path id="pFW4kdFi4" d="M4700 3909 c0 -47 16 -69 51 -69 l30 0 -21 31 c-29 40 -22 44 23 13 l37 -25 0 31 c0 20 -5 30 -15 30 -8 0 -15 5 -15 10 0 6 -20 10 -45 10 -44 0 -45 -1 -45 -31z"></path><path id="pUYgk1DAz" d="M2796 3893 c-9 -60 -7 -83 8 -83 9 0 18 19 25 50 14 67 14 70 -8 70 -14 0 -20 -10 -25 -37z"></path><path id="pQ1PMVLKR" d="M3830 3900 c74 -24 139 -53 189 -84 32 -20 41 -23 41 -11 0 8 5 15 10 15 6 0 10 4 10 9 0 15 -66 41 -167 67 -110 28 -164 31 -83 4z"></path><path id="p7C62O8fT" d="M4490 3916 c0 -2 30 -29 68 -59 173 -141 274 -266 321 -398 13 -35 36 -89 51 -119 28 -57 61 -207 79 -365 16 -132 13 -389 -4 -508 -34 -223 -120 -494 -213 -670 -60 -113 -193 -316 -260 -395 -21 -24 -49 -62 -63 -84 -26 -40 -200 -207 -299 -287 -107 -87 -97 -82 95 45 190 125 297 235 504 518 40 56 82 121 93 146 10 25 25 56 33 70 29 55 126 305 150 388 56 195 75 331 75 537 0 178 -8 261 -39 410 -19 90 -28 119 -55 182 -26 63 -32 93 -18 93 4 0 21 -40 38 -88 58 -162 91 -354 108 -618 12 -211 18 -227 70 -222 l31 3 8 120 c18 248 4 384 -55 565 -60 184 -201 419 -347 580 l-50 55 -1 -37 c0 -20 5 -40 10 -43 15 -9 12 -65 -3 -65 -7 0 -17 10 -22 23 -7 15 -20 23 -42 25 -28 3 -33 7 -33 31 0 33 -56 91 -87 91 -15 0 -23 7 -25 23 -2 14 -11 23 -25 25 -13 2 -23 10 -23 18 0 9 -11 14 -35 14 -19 0 -35 -2 -35 -4z"></path><path id="pnNhjagex" d="M3026 3869 c-18 -91 12 -111 36 -24 15 55 15 55 -7 55 -17 0 -24 -7 -29 -31z"></path><path id="p16KvSp1UZ" d="M2953 3813 c-13 -62 -7 -193 12 -268 31 -123 67 -186 152 -264 43 -39 79 -68 81 -66 2 2 -19 31 -46 63 -60 73 -97 148 -118 242 -11 46 -21 70 -30 70 -8 0 -14 7 -14 15 0 8 6 15 14 15 15 0 20 17 31 103 6 42 4 47 -14 47 -16 0 -21 -9 -26 -57 -11 -97 -15 -84 -10 30 5 90 3 107 -9 107 -9 0 -18 -15 -23 -37z"></path><path id="pHQTRU2iH" d="M2726 3818 c-10 -38 -7 -48 14 -48 16 0 20 7 20 35 0 40 -24 49 -34 13z"></path><path id="p1HAjvOSLy" d="M4100 3796 c0 -14 4 -26 10 -26 5 0 7 -6 5 -12 -3 -7 11 -23 30 -36 19 -12 35 -18 35 -12 0 5 11 10 25 10 15 0 25 -6 25 -14 0 -15 21 -26 51 -26 12 0 19 -7 19 -18 0 -19 98 -122 117 -122 6 0 13 -10 16 -22 3 -13 9 -33 12 -45 6 -18 3 -23 -10 -23 -21 0 -45 24 -45 44 0 9 -4 16 -9 16 -5 0 -12 11 -15 25 -4 14 -11 25 -16 25 -6 0 -10 7 -10 15 0 8 -6 15 -14 15 -8 0 -16 10 -18 23 -2 17 -11 23 -37 25 l-35 4 27 -34 c80 -98 156 -257 183 -379 21 -97 25 -433 6 -534 -44 -230 -159 -437 -378 -680 -148 -164 -317 -289 -545 -405 -118 -60 -370 -147 -501 -175 -21 -4 -28 -11 -28 -29 0 -28 -31 -37 -185 -56 -116 -15 -517 -14 -615 0 -274 41 -517 118 -689 219 -60 36 -90 41 -46 8 16 -12 54 -43 82 -69 92 -83 385 -211 583 -254 72 -16 128 -19 370 -18 303 0 374 7 580 59 123 30 503 168 550 199 19 13 69 41 110 63 131 69 223 135 299 212 103 106 266 321 313 416 86 170 146 395 170 640 15 145 25 120 27 -65 1 -155 -10 -230 -55 -389 -97 -336 -385 -683 -831 -999 -96 -68 -192 -116 -332 -164 -259 -90 -473 -131 -765 -147 -105 -6 -184 -15 -192 -22 -19 -16 -18 -44 3 -60 23 -19 301 -16 453 4 185 26 207 31 600 147 57 17 136 46 175 64 38 19 81 37 95 41 69 21 294 156 405 243 79 62 244 228 295 297 22 30 55 83 74 117 18 35 54 103 80 151 55 104 115 279 147 427 33 160 32 403 -4 560 -51 227 -110 349 -262 543 -49 62 -139 137 -232 194 -96 59 -103 61 -103 29z"></path><path id="p1GRxGQ32C" d="M2210 3775 c0 -31 3 -35 26 -35 21 0 25 3 19 18 -4 9 -10 25 -12 35 -10 32 -33 19 -33 -18z"></path><path id="pjdW6PpTB" d="M2780 3765 c0 -40 24 -49 34 -12 10 37 7 47 -14 47 -16 0 -20 -7 -20 -35z"></path><path id="ptDH3qP3I" d="M2570 3728 c0 -59 13 -98 31 -98 22 0 22 3 8 70 -11 51 -39 72 -39 28z"></path><path id="pi0loTG0J" d="M2720 3728 c0 -7 6 -53 14 -101 13 -92 29 -124 46 -97 8 13 10 12 10 -2 0 -10 -7 -18 -15 -18 -20 0 -19 -12 6 -84 37 -111 59 -137 59 -71 0 19 4 35 9 35 5 0 4 16 -2 36 -8 27 -15 34 -29 31 -10 -3 -18 -1 -18 4 0 5 7 9 16 9 15 0 15 31 -2 123 -6 30 -30 37 -36 10 -3 -10 -8 17 -12 60 -7 66 -10 77 -27 77 -10 0 -19 -6 -19 -12z"></path><path id="pN8bxc0Ml" d="M3956 3672 c5 -5 21 -18 36 -29 43 -32 135 -161 178 -248 59 -119 71 -178 72 -340 0 -196 -28 -293 -148 -502 -57 -101 -112 -168 -198 -239 -71 -59 -371 -264 -387 -264 -5 0 -9 16 -9 35 0 20 -5 35 -12 35 -6 0 -50 -13 -97 -30 -147 -51 -465 -110 -626 -117 -134 -5 -278 8 -395 37 -146 36 -216 58 -285 91 -98 46 -324 179 -385 227 -25 20 -51 40 -57 45 -10 7 -13 2 -13 -22 0 -26 4 -31 25 -31 18 0 25 -5 25 -20 0 -13 7 -20 20 -20 11 0 20 -7 20 -15 0 -8 11 -17 25 -21 14 -3 25 -10 25 -14 0 -5 10 -12 22 -16 12 -3 28 -13 36 -20 7 -8 20 -14 28 -14 8 0 14 -4 14 -9 0 -5 16 -15 35 -22 19 -7 35 -16 35 -20 0 -4 20 -18 45 -30 41 -21 58 -39 36 -39 -15 0 -215 93 -229 107 -6 6 -22 15 -34 19 -12 4 -28 13 -36 20 -7 8 -26 14 -42 14 -22 0 -29 5 -32 23 -2 14 -11 23 -25 25 -13 2 -23 9 -23 16 0 25 -45 56 -81 56 l-34 -1 54 -50 c93 -87 255 -183 441 -262 131 -56 408 -142 520 -163 87 -15 417 -34 480 -27 133 15 274 61 408 135 41 22 76 37 78 35 7 -7 -149 -96 -208 -118 -73 -28 -220 -74 -298 -94 -76 -19 -145 -56 -181 -98 l-26 -31 -174 12 c-105 7 -221 21 -294 36 -116 25 -280 72 -320 93 -11 6 -56 25 -100 44 -224 91 -474 235 -595 342 l-100 87 32 -57 c38 -69 85 -132 113 -153 11 -8 52 -44 90 -80 131 -123 293 -219 497 -294 134 -49 557 -116 733 -116 186 0 483 56 650 123 180 71 257 117 402 239 47 40 109 91 137 114 111 88 267 306 349 484 63 139 107 305 108 413 0 50 3 66 9 52 14 -33 11 -264 -5 -338 -19 -92 -48 -152 -139 -292 -42 -64 -86 -135 -98 -158 -43 -85 -174 -212 -368 -357 -107 -80 -288 -171 -405 -205 -205 -59 -234 -66 -320 -85 -81 -17 -146 -27 -393 -60 -91 -12 -148 -13 -170 -1 -47 25 -74 -57 -31 -92 23 -18 36 -19 224 -14 347 10 601 69 916 211 158 72 264 144 393 267 149 141 248 278 340 464 200 406 216 676 60 995 -49 99 -68 126 -133 191 -43 42 -105 92 -140 112 -59 35 -86 47 -65 29z m304 -364 c0 -5 -4 -8 -10 -8 -5 0 -10 10 -10 23 0 18 2 19 10 7 5 -8 10 -18 10 -22z"></path><path id="pDfuHoIvR" d="M2050 3635 c0 -31 3 -35 26 -35 21 0 25 3 19 18 -4 9 -10 25 -12 35 -10 32 -33 19 -33 -18z"></path><path id="pHXbRFdmE" d="M2160 3624 c0 -21 18 -54 30 -54 6 0 10 16 10 35 0 28 -4 35 -20 35 -11 0 -20 -7 -20 -16z"></path><path id="p1DnC8fPNE" d="M1923 3559 c4 -30 11 -55 17 -57 5 -2 10 -18 10 -36 0 -18 7 -41 15 -52 8 -10 15 -26 15 -34 0 -19 52 -80 68 -80 7 0 12 -6 12 -12 1 -22 130 -152 130 -131 0 9 -79 113 -155 206 -8 9 -15 22 -15 27 0 6 -4 10 -9 10 -6 0 -9 8 -8 19 0 10 -6 36 -15 57 -9 22 -23 59 -30 83 -7 25 -19 47 -27 49 -11 4 -13 -5 -8 -49z"></path><path id="p1FSW1JeiD" d="M2192 3533 c35 -74 48 -81 48 -28 0 31 -3 35 -26 35 -14 0 -24 -3 -22 -7z"></path><path id="pdbn2bbHW" d="M2630 3461 c0 -39 9 -61 26 -61 9 0 14 -12 14 -35 0 -31 3 -35 26 -35 14 0 24 3 22 8 -1 4 -16 40 -33 79 -31 76 -55 94 -55 44z"></path><path id="p81VX7Mt6" d="M2150 3425 c0 -31 3 -35 25 -35 30 0 30 3 8 41 -23 38 -33 37 -33 -6z"></path><path id="p1UQzcwwL" d="M2230 3454 c0 -12 34 -64 42 -64 4 0 8 16 8 35 0 31 -3 35 -25 35 -14 0 -25 -3 -25 -6z"></path><path id="pAZtzQakO" d="M2400 3355 c0 -24 5 -35 15 -35 9 0 15 -9 15 -21 0 -12 8 -23 20 -26 11 -3 20 -14 20 -24 0 -11 7 -19 15 -19 8 0 15 -9 15 -20 0 -11 7 -20 15 -20 8 0 15 -8 15 -18 0 -23 50 -72 73 -72 9 0 17 -8 17 -17 0 -9 10 -27 22 -40 18 -20 19 -23 5 -23 -9 0 -17 7 -17 15 0 10 -11 15 -35 15 -19 0 -35 -3 -35 -7 0 -12 148 -109 215 -141 128 -62 242 -94 355 -98 l105 -4 -89 20 c-97 21 -228 70 -291 108 -55 34 -208 172 -275 248 -30 34 -80 96 -110 137 -30 42 -58 76 -62 76 -5 1 -8 -15 -8 -34z"></path><path id="p17ahouPub" d="M2850 3319 c0 -39 5 -47 71 -110 39 -38 75 -69 79 -69 5 0 -10 28 -34 63 -24 34 -55 83 -70 110 -16 26 -32 47 -37 47 -5 0 -9 -19 -9 -41z"></path><path id="pzCgrfCox" d="M4011 3333 c6 -16 12 -98 12 -183 2 -173 0 -182 -70 -328 -36 -75 -58 -107 -118 -166 -116 -115 -201 -167 -351 -215 -71 -22 -172 -48 -224 -56 -52 -8 -110 -18 -127 -21 -36 -5 -42 -23 -17 -49 9 -9 14 -19 10 -22 -12 -12 -301 -7 -356 6 -30 7 -104 24 -163 38 -59 14 -106 28 -103 30 4 4 58 -5 163 -28 66 -14 133 -12 133 6 0 14 -7 16 -135 36 -87 13 -163 32 -285 71 -124 40 -178 63 -275 117 -102 57 -307 211 -282 211 2 0 44 -30 93 -66 209 -156 436 -254 693 -299 118 -21 161 -20 161 4 0 16 -11 19 -81 25 -78 6 -215 38 -308 71 -24 8 -52 15 -61 15 -10 0 -20 3 -22 8 -4 9 -152 82 -167 82 -6 0 -11 4 -11 8 0 11 -46 32 -70 32 -11 0 -20 7 -20 15 0 9 -9 15 -21 15 -12 0 -23 8 -26 20 -3 11 -14 20 -24 20 -11 0 -19 7 -19 15 0 8 -7 15 -15 15 -8 0 -15 5 -15 10 0 6 -9 10 -20 10 -11 0 -20 6 -20 13 0 6 -20 24 -43 39 -24 15 -52 37 -62 48 -21 23 -85 28 -85 7 0 -32 262 -281 368 -350 37 -24 138 -78 224 -120 134 -67 180 -83 314 -117 299 -74 472 -74 769 2 95 24 230 74 265 98 14 10 54 32 90 50 102 51 194 133 267 238 20 28 38 50 41 48 8 -8 -60 -120 -107 -175 -45 -54 -98 -92 -226 -164 -159 -90 -269 -129 -461 -163 -121 -21 -406 -21 -534 1 -52 9 -121 20 -152 26 -63 10 -138 33 -240 73 -67 25 -68 25 -68 5 0 -16 -4 -19 -22 -13 -13 3 -30 10 -38 15 -12 7 -10 8 8 9 44 0 20 21 -80 71 -96 47 -103 49 -106 30 -4 -25 -9 -26 -28 -6 -9 8 -26 15 -40 15 -13 0 -24 5 -24 10 0 6 11 10 25 10 33 0 32 13 -3 31 -15 7 -46 26 -69 42 l-43 28 0 -31 c0 -20 5 -30 15 -30 8 0 15 -4 15 -9 0 -5 10 -12 23 -14 19 -4 18 -4 -5 -6 -16 0 -28 -5 -28 -9 0 -8 167 -110 202 -124 14 -6 18 -3 18 12 0 11 1 20 3 20 1 0 20 -7 42 -15 l40 -14 -32 -1 c-18 0 -33 -5 -33 -11 0 -23 225 -109 392 -150 66 -16 98 -29 98 -38 0 -28 -144 -1 -325 61 -125 42 -307 138 -412 216 l-33 24 0 -31 c0 -24 4 -31 20 -31 13 0 20 -6 19 -17 0 -11 -3 -13 -6 -5 -2 6 -13 12 -24 12 -10 0 -19 7 -19 15 0 8 -7 15 -15 15 -8 0 -15 5 -15 10 0 6 -9 10 -20 10 -27 0 -25 28 2 32 19 2 7 15 -67 72 -50 38 -96 73 -102 79 -10 7 -13 2 -13 -22 0 -26 4 -31 25 -31 18 0 25 -5 25 -20 0 -13 7 -20 20 -20 11 0 20 -7 20 -15 0 -8 -9 -15 -20 -15 -11 0 -20 -3 -20 -7 1 -11 253 -188 320 -225 30 -16 60 -34 65 -38 6 -5 49 -24 96 -44 278 -114 514 -152 849 -135 199 11 259 21 403 70 152 52 250 101 373 185 226 154 313 263 368 464 32 117 33 140 6 140 -13 0 -20 -7 -20 -19 0 -10 -9 -21 -19 -24 -18 -4 -19 -3 -5 37 8 22 19 64 23 91 l9 50 1 -52 c1 -39 5 -53 16 -53 52 0 16 287 -48 386 -27 41 -41 44 -26 7z m-626 -978 c-36 -17 -55 -19 -55 -6 0 10 28 18 65 19 15 0 12 -3 -10 -13z"></path><path id="p18lQzhYsK" d="M2760 3236 c0 -28 -4 -35 -22 -38 -19 -2 -8 -15 69 -80 159 -132 275 -173 498 -173 154 0 221 15 284 62 34 26 61 76 61 113 0 20 -4 18 -42 -14 -53 -46 -148 -77 -255 -83 -73 -5 -83 -8 -83 -24 0 -15 -7 -19 -37 -18 -21 0 -32 3 -25 6 28 11 9 32 -40 43 -78 19 -157 49 -213 84 -82 49 -151 104 -165 131 -19 35 -30 31 -30 -9z m80 -96 c0 -5 -7 -10 -15 -10 -8 0 -15 5 -15 10 0 6 7 10 15 10 8 0 15 -4 15 -10z"></path><path id="pr2HqYsNd" d="M2212 3200 c18 -27 36 -50 41 -50 4 0 7 16 7 35 0 19 -4 35 -10 35 -5 0 -10 7 -10 15 0 10 -10 15 -30 15 l-30 0 32 -50z"></path><path id="pf7J1c0Cf" d="M2300 3216 c0 -29 4 -36 20 -36 16 0 20 -7 20 -30 0 -27 3 -30 30 -30 26 0 30 -4 30 -26 0 -31 84 -124 112 -124 10 0 18 -7 18 -15 0 -8 7 -15 15 -15 8 0 15 -4 15 -10 0 -5 7 -10 15 -10 8 0 15 -4 15 -10 0 -5 7 -10 15 -10 8 0 15 -4 15 -10 0 -5 14 -10 30 -10 20 0 30 -5 30 -15 0 -10 11 -15 35 -15 45 0 45 17 -2 36 -97 41 -298 210 -362 306 -42 62 -51 67 -51 24z"></path><path id="pOTXipW1P" d="M2030 3136 c0 -25 4 -36 15 -36 8 0 15 -6 15 -13 0 -21 74 -87 98 -87 15 0 22 -6 22 -20 0 -13 11 -25 27 -33 15 -6 36 -20 45 -29 10 -10 25 -18 33 -18 8 0 15 -4 15 -10 0 -5 7 -10 15 -10 8 0 15 -4 15 -10 0 -5 11 -10 25 -10 14 0 25 -6 25 -13 0 -14 60 -47 84 -47 8 0 16 -7 20 -15 3 -8 15 -15 26 -15 11 0 20 -3 20 -8 0 -9 90 -43 189 -72 53 -16 87 -20 118 -15 41 6 43 8 43 40 0 30 -4 35 -37 46 -47 14 -196 81 -203 90 -19 24 -110 41 -110 21 0 -12 171 -104 245 -132 33 -13 64 -27 70 -32 19 -17 -28 -7 -143 31 -207 68 -443 209 -589 352 l-83 81 0 -36z"></path><path id="p11Bv0GqA" d="M2271 3113 c87 -114 151 -181 204 -214 38 -24 45 -24 45 2 0 24 -26 48 -52 49 -10 0 -18 6 -18 13 0 16 -36 47 -54 47 -9 0 -16 12 -18 28 -2 21 -9 28 -30 30 -24 3 -28 8 -28 33 0 26 -3 29 -31 29 -28 0 -30 -2 -18 -17z"></path><path id="pzBTsK3La" d="M2475 3111 c11 -13 32 -32 48 -43 l27 -19 0 30 c0 28 -3 31 -33 31 -18 0 -39 6 -47 13 -8 6 -6 1 5 -12z"></path><path id="ppLKccyaD" d="M1937 3048 c47 -63 88 -109 109 -122 24 -16 24 -16 24 14 0 19 -5 30 -14 30 -7 0 -16 9 -19 20 -3 12 -14 20 -26 20 -16 0 -21 6 -21 25 0 21 -5 25 -31 25 -24 0 -29 -3 -22 -12z"></path><path id="p1HAKW4pff" d="M3807 2964 c-71 -78 -176 -149 -271 -181 -77 -27 -89 -28 -256 -27 -152 1 -189 5 -282 27 -58 15 -135 38 -169 52 -34 14 -64 25 -66 25 -2 0 -3 -11 -3 -24 0 -22 10 -27 98 -54 53 -16 120 -35 147 -41 91 -20 278 -33 390 -28 l110 5 -75 -23 c-41 -13 -96 -27 -122 -30 -39 -5 -48 -10 -48 -26 0 -23 3 -23 105 -4 180 34 291 90 397 198 38 39 103 159 96 176 -2 5 -25 -16 -51 -45z"></path><path id="p1Gvvh4VQM" d="M1820 2981 c0 -29 3 -31 36 -31 39 0 38 9 -6 40 l-30 21 0 -30z"></path><path id="pPQRJFBy8" d="M1900 2911 c0 -29 3 -31 36 -31 39 0 38 9 -6 40 l-30 21 0 -30z"></path><path id="pCL5No65Z" d="M2080 2903 c0 -11 158 -111 270 -171 116 -62 194 -89 329 -113 131 -24 141 -24 141 0 0 16 -10 21 -57 26 -96 11 -223 46 -302 81 -40 19 -82 34 -92 34 -11 0 -19 6 -19 13 0 8 -19 22 -42 33 -24 10 -49 24 -56 31 -7 7 -20 13 -28 13 -8 0 -14 5 -14 10 0 6 -13 10 -30 10 -23 0 -30 4 -30 20 0 16 -7 20 -35 20 -19 0 -35 -3 -35 -7z"></path><path id="plkeCPFpa" d="M1980 2850 c0 -23 4 -30 20 -30 11 0 20 -7 20 -15 0 -8 7 -15 15 -15 8 0 15 -4 15 -10 0 -5 7 -10 15 -10 8 0 15 -4 15 -10 0 -5 7 -10 15 -10 8 0 15 -4 15 -10 0 -5 16 -10 35 -10 19 0 35 3 35 8 -1 4 -46 37 -100 74 l-100 68 0 -30z"></path><path id="p1986TTTZj" d="M1542 2783 c2 -28 9 -41 26 -48 12 -5 22 -15 22 -22 0 -8 14 -13 36 -13 l36 0 -58 60 c-33 33 -60 60 -62 60 -2 0 -2 -17 0 -37z"></path><path id="pjIRcn720" d="M1406 2725 c9 -14 23 -25 30 -25 8 0 14 -9 14 -20 0 -16 7 -20 36 -20 31 0 35 2 24 14 -13 16 -103 76 -114 76 -3 0 1 -11 10 -25z"></path><path id="pDSV6JGSA" d="M2250 2675 c0 -20 6 -25 35 -31 19 -3 35 -10 35 -14 0 -19 209 -83 347 -105 115 -19 163 -19 163 -1 0 15 -21 21 -105 31 -122 15 -279 59 -390 110 -41 19 -77 35 -80 35 -3 0 -5 -11 -5 -25z"></path><path id="p1EcqDsDSN" d="M1680 2651 c0 -29 3 -31 36 -31 39 0 38 9 -6 40 l-30 21 0 -30z"></path><path id="pbGcqxc31" d="M3574 2640 c-60 -27 -230 -68 -332 -80 -140 -17 -152 -20 -152 -35 0 -11 12 -15 45 -15 45 0 156 15 229 30 22 5 35 5 30 0 -15 -15 -305 -88 -376 -96 -58 -5 -68 -9 -68 -25 0 -13 7 -19 23 -19 49 1 200 30 323 64 199 54 296 103 329 167 19 35 10 36 -51 9z"></path><path id="pOpeePaXf" d="M3113 2643 c-35 -3 -43 -8 -43 -25 0 -19 4 -20 68 -13 91 9 112 15 112 31 0 14 -35 16 -137 7z"></path><path id="pM3TE8fer" d="M2840 2616 c0 -16 31 -26 85 -26 54 0 85 10 85 26 0 11 -19 14 -85 14 -66 0 -85 -3 -85 -14z"></path><path id="pOTdWtMM5" d="M5511 2338 c-13 -221 -47 -472 -80 -593 -31 -110 -156 -414 -196 -472 -14 -21 -55 -81 -90 -133 -36 -52 -61 -96 -55 -98 16 -6 36 14 113 117 95 126 161 250 225 426 66 180 100 339 113 526 11 163 6 416 -9 431 -5 5 -14 -88 -21 -204z"></path><path id="pZzeNnIWF" d="M2930 2520 c0 -17 7 -20 40 -20 33 0 40 3 40 20 0 17 -7 20 -40 20 -33 0 -40 -3 -40 -20z"></path><path id="pEIva8Rkp" d="M1311 2501 c7 -10 20 -23 30 -30 17 -10 19 -8 19 19 0 27 -3 30 -30 30 -27 0 -29 -2 -19 -19z"></path><path id="pYuY9xnS9" d="M1540 2421 c0 -29 3 -31 36 -31 39 0 38 9 -6 40 l-30 21 0 -30z"></path></g></g><g id="l7PfVk2IWAG8J9Q19GDo6uc" fill="rgb(48,41,127)" style="transform: none;"><g style="transform: none;"><path id="puiPquVOJ" d="M3020 5687 c-137 -58 -229 -120 -373 -253 -32 -30 -62 -54 -66 -54 -23 0 -178 -199 -237 -307 -225 -402 -284 -583 -284 -865 0 -123 4 -168 31 -328 22 -129 78 -300 138 -421 57 -114 184 -291 254 -355 73 -66 232 -174 303 -205 139 -61 343 -110 401 -97 10 3 -4 8 -32 12 -64 9 -213 63 -281 101 -104 59 -256 201 -363 340 -99 128 -118 162 -182 325 -29 74 -60 149 -69 165 -55 99 -78 416 -46 655 13 99 36 204 56 260 5 14 20 63 35 110 50 165 156 341 309 509 40 44 90 93 112 109 21 16 55 46 74 67 33 35 98 86 250 200 36 27 69 52 75 57 20 18 -33 5 -105 -25z"></path><path id="pVPJ41ZAZ" d="M3735 5644 c-138 -16 -264 -44 -395 -86 -88 -28 -368 -178 -456 -245 -83 -62 -202 -184 -293 -300 -76 -97 -193 -302 -217 -382 -10 -31 -21 -61 -26 -68 -13 -17 -57 -158 -73 -238 -30 -141 -17 -361 26 -460 12 -27 14 -16 20 120 4 83 12 177 18 210 7 33 16 89 22 125 14 98 37 163 104 295 103 203 160 287 280 417 154 166 347 292 640 416 197 83 439 152 536 152 42 0 88 28 68 41 -13 8 -190 10 -254 3z"></path><path id="pIDVyl41j" d="M2270 5497 c-161 -139 -218 -215 -341 -454 -82 -159 -138 -317 -176 -492 -30 -141 -22 -421 17 -596 53 -237 75 -301 177 -505 56 -113 71 -133 153 -215 49 -49 90 -85 90 -80 0 6 -30 46 -65 90 -79 96 -133 198 -170 320 -59 194 -69 253 -86 514 -10 144 -10 204 0 280 44 348 94 538 190 735 81 163 126 237 233 376 43 55 75 100 70 100 -4 0 -45 -33 -92 -73z"></path><path id="pW6YFvC10" d="M4095 5405 c-16 -3 -79 -10 -140 -16 -131 -14 -180 -24 -345 -77 -227 -71 -421 -161 -593 -274 -49 -32 -92 -58 -97 -58 -12 0 -1 68 17 105 32 65 -131 -113 -231 -253 -187 -261 -258 -408 -305 -637 -48 -227 -11 -478 104 -707 55 -110 97 -167 194 -266 151 -154 250 -216 405 -252 103 -24 236 -37 236 -22 0 6 -8 13 -17 15 -17 4 -17 5 0 6 9 0 17 7 17 14 0 8 20 18 48 24 42 9 33 10 -74 11 -66 0 -143 6 -170 13 -115 27 -311 143 -351 206 -9 16 -30 45 -46 66 -31 40 -74 124 -89 172 -39 132 -58 261 -58 404 0 83 5 174 11 203 28 145 67 280 99 353 134 299 365 489 875 720 103 47 297 104 460 136 92 18 475 18 565 1 36 -7 90 -18 120 -23 80 -16 189 -48 234 -70 66 -32 51 -14 -36 42 -128 83 -227 120 -388 145 -93 14 -386 26 -445 19z"></path><path id="ptDJGlv0I" d="M1738 5228 c-86 -116 -162 -278 -199 -424 -71 -286 -76 -527 -20 -854 6 -30 17 -95 26 -145 29 -171 118 -385 222 -540 65 -97 232 -298 285 -343 67 -57 257 -170 384 -228 125 -57 323 -94 504 -94 303 0 581 58 714 148 88 60 156 135 179 197 9 26 16 49 15 50 -2 0 -23 -21 -48 -49 -34 -37 -38 -45 -17 -31 32 21 34 14 6 -31 -23 -38 -99 -107 -108 -98 -3 3 10 18 29 34 44 36 33 51 -12 17 -18 -13 -40 -27 -48 -31 -14 -7 -3 3 67 62 37 31 12 17 -56 -30 -30 -21 -78 -46 -107 -55 -30 -9 -50 -21 -47 -26 4 -7 -1 -8 -13 -3 -10 4 -47 2 -81 -5 -49 -10 -91 -10 -199 0 -137 12 -171 18 -298 53 -93 26 -245 99 -332 159 -151 104 -355 360 -446 559 -62 135 -88 206 -110 305 -18 82 -18 486 0 575 35 170 66 278 104 357 16 34 27 67 23 73 -19 30 -75 -10 -110 -78 -49 -98 -92 -299 -104 -492 -25 -390 63 -747 254 -1032 103 -153 190 -257 252 -304 77 -57 247 -150 331 -180 68 -25 92 -44 56 -44 -23 0 -147 36 -214 62 -86 34 -204 99 -340 186 -95 62 -262 224 -315 308 -18 28 -38 55 -45 59 -32 20 -204 309 -274 460 -55 117 -79 222 -98 426 -16 171 3 360 58 589 20 81 109 351 129 391 19 36 36 79 31 79 -2 0 -15 -15 -28 -32z"></path><path id="p3qwkS0K5" d="M4075 5125 c-236 -23 -376 -49 -500 -94 -33 -12 -94 -34 -135 -48 -105 -35 -177 -73 -272 -144 -100 -74 -278 -253 -325 -327 -34 -53 -76 -172 -87 -246 -5 -35 -4 -37 9 -20 8 11 15 25 15 32 1 47 103 193 202 290 122 119 238 199 383 265 176 80 285 114 418 133 62 8 166 24 233 35 130 21 397 27 463 10 20 -5 68 -15 106 -21 226 -37 416 -94 626 -186 95 -42 324 -173 370 -212 51 -44 50 -32 -3 28 -83 93 -288 254 -385 304 -44 22 -183 77 -322 128 -29 10 -74 23 -100 29 -296 61 -430 69 -696 44z"></path><path id="p9hi2C8UY" d="M4070 4968 c-139 -11 -358 -51 -460 -85 -41 -13 -138 -55 -215 -92 -113 -56 -158 -85 -235 -150 -140 -120 -164 -145 -229 -235 -99 -137 -132 -219 -181 -441 -25 -113 -31 -208 -20 -299 32 -239 94 -379 212 -477 56 -46 78 -58 52 -28 -38 42 -109 162 -131 219 -41 107 -48 151 -47 300 0 167 23 278 79 392 46 93 166 238 282 342 82 74 117 97 218 145 241 116 425 161 655 161 223 0 338 -25 720 -158 155 -54 412 -198 590 -331 102 -77 160 -113 154 -98 -2 7 7 26 21 41 16 17 25 39 25 58 l0 31 26 -24 c15 -13 23 -17 18 -8 -21 38 -280 237 -379 291 -120 66 -393 168 -560 208 -85 21 -129 29 -270 51 -33 6 -142 12 -242 15 l-182 6 -3 26 c-2 21 -11 29 -40 37 -20 5 -39 13 -42 16 -4 3 24 14 61 24 38 9 98 26 134 36 36 10 73 19 82 19 9 0 19 5 22 10 3 6 5 9 3 8 -2 0 -55 -5 -118 -10z"></path><path id="p16nPoQh4u" d="M3845 4649 c-104 -22 -149 -35 -260 -76 -172 -64 -301 -149 -378 -250 -73 -96 -148 -205 -166 -242 -65 -128 -104 -320 -89 -441 20 -167 66 -261 176 -364 71 -68 80 -68 22 -1 -22 25 -51 65 -64 88 -34 58 -66 180 -66 249 0 79 36 241 69 308 52 108 193 230 367 318 163 82 469 135 649 112 218 -28 301 -53 513 -156 199 -97 360 -211 562 -399 36 -33 57 -50 47 -38 -11 12 -16 27 -12 32 9 15 38 14 55 -1 7 -7 3 3 -10 22 -40 58 -150 168 -245 244 -105 84 -140 106 -360 227 -47 25 -223 99 -290 121 -135 44 -273 57 -433 42 -168 -17 -229 -29 -340 -70 -110 -42 -179 -78 -286 -151 -43 -29 -80 -52 -82 -50 -9 9 107 107 172 145 194 116 448 181 706 182 132 0 207 -13 364 -65 230 -75 297 -106 606 -281 86 -49 172 -109 258 -181 25 -20 42 -34 38 -29 -4 5 -1 15 7 23 8 8 15 26 15 39 0 18 4 23 13 18 49 -30 -150 161 -258 248 -76 61 -260 180 -340 221 -105 52 -321 118 -500 152 -88 16 -391 19 -460 4z"></path><path id="pqncmUdgB" d="M1220 4518 c-26 -122 -33 -262 -21 -429 15 -216 37 -318 133 -619 42 -132 71 -191 176 -360 109 -173 170 -246 356 -418 135 -126 193 -164 406 -269 164 -81 220 -99 450 -150 106 -24 373 -23 495 1 98 19 206 48 272 72 l41 15 -25 27 c-23 25 -23 27 -6 40 17 13 16 14 -7 7 -66 -18 -211 -53 -266 -64 -72 -13 -467 -15 -527 -2 -23 5 -69 14 -102 21 -194 36 -498 160 -611 249 -11 9 -63 48 -115 87 -52 40 -110 89 -129 110 -30 34 -31 35 -5 13 17 -14 46 -36 65 -49 19 -13 76 -54 126 -92 212 -157 499 -270 756 -298 209 -22 370 -7 597 54 139 38 171 50 171 66 0 6 10 11 23 11 19 1 19 2 3 6 -11 3 -25 11 -32 18 -11 11 -9 14 12 19 15 4 24 9 22 12 -3 2 -45 -4 -94 -15 -158 -34 -238 -42 -416 -42 -324 0 -530 55 -796 210 -197 115 -439 334 -568 515 -74 103 -247 447 -287 571 -55 167 -80 340 -81 562 -1 95 -2 173 -3 173 -1 0 -6 -24 -13 -52z"></path><path id="pdGO0pbyJ" d="M3779 4285 c-99 -18 -162 -40 -294 -105 -73 -35 -145 -79 -183 -112 -87 -73 -158 -178 -122 -178 5 0 15 9 22 21 18 29 139 107 217 139 73 30 198 63 307 81 134 22 313 1 479 -57 78 -27 236 -112 275 -148 19 -18 67 -57 105 -88 84 -67 181 -167 220 -225 32 -49 39 -54 25 -17 -13 34 -14 33 16 44 23 9 26 15 22 45 -2 19 -2 35 2 35 3 0 27 -23 53 -52 27 -29 43 -44 35 -32 -13 21 -67 84 -172 201 -60 67 -63 94 -7 54 16 -12 78 -72 138 -134 59 -61 99 -102 89 -90 -21 26 -15 54 16 68 13 6 31 26 40 45 17 33 17 35 -5 58 -47 51 -228 192 -309 241 -47 28 -110 60 -140 70 -30 10 -69 26 -86 35 -51 27 -238 86 -321 101 -91 18 -326 18 -422 0z"></path><path id="p6oFOwCRc" d="M3670 4081 c-143 -21 -255 -61 -349 -125 -29 -20 -57 -36 -61 -36 -5 0 -33 -27 -63 -60 -53 -59 -108 -150 -121 -200 -4 -15 3 -8 16 17 48 87 137 181 212 222 96 53 218 90 363 110 67 10 97 9 170 -3 181 -32 323 -89 436 -174 34 -27 89 -69 122 -94 33 -25 91 -84 129 -132 66 -82 95 -111 64 -65 -12 19 -10 24 19 56 18 19 33 41 33 50 0 10 16 -1 41 -28 33 -35 31 -32 -10 19 -27 34 -72 80 -98 101 -26 21 -68 60 -93 86 -25 26 -81 70 -125 99 -176 114 -301 154 -500 161 -71 2 -155 0 -185 -4z"></path><path id="pepErygTL" d="M3865 3891 c75 -27 168 -76 189 -100 11 -12 36 -31 55 -43 47 -27 143 -120 188 -181 19 -26 58 -92 85 -145 28 -53 48 -89 44 -79 -22 67 -12 94 24 62 28 -25 43 -10 35 36 -4 21 -5 39 -2 39 3 0 19 -22 37 -50 33 -51 50 -68 29 -27 -117 219 -384 428 -624 487 -100 25 -126 25 -60 1z"></path><path id="prZasK05Z" d="M1080 3719 c0 -65 63 -318 105 -423 65 -161 174 -352 250 -437 22 -25 58 -69 80 -99 126 -168 276 -282 551 -415 130 -63 358 -138 398 -132 17 3 24 3 16 0 -8 -4 3 -11 30 -19 43 -13 72 -12 32 0 -33 11 -16 46 22 47 l31 1 -30 8 c-16 5 -55 14 -85 20 -154 34 -543 214 -675 314 -111 84 -220 183 -255 234 -18 26 -50 65 -70 87 -75 81 -255 403 -323 575 -14 36 -35 106 -47 155 -21 89 -30 113 -30 84z"></path><path id="pmuQ8ioqE" d="M3997 3644 c51 -46 141 -172 179 -253 42 -87 74 -205 74 -273 0 -26 5 -48 10 -48 6 0 10 10 10 23 0 25 -17 129 -27 161 -4 15 0 14 23 -8 16 -14 34 -26 41 -26 6 0 19 -10 27 -22 9 -12 16 -17 16 -11 0 49 -94 233 -158 310 -42 50 -144 133 -193 158 l-34 17 32 -28z"></path><path id="phcZO1FWR" d="M4015 3345 c13 -40 25 -221 19 -280 -14 -128 -71 -262 -161 -377 -25 -32 -49 -58 -52 -58 -3 -1 -28 -21 -56 -46 -27 -25 -41 -41 -29 -35 11 5 27 17 34 26 7 9 26 25 41 35 24 18 30 18 53 6 l26 -13 -21 -29 c-11 -16 0 -7 25 19 25 27 43 54 39 60 -3 6 -1 7 5 3 6 -4 28 23 53 66 59 103 70 120 75 115 2 -2 -3 -20 -11 -40 -16 -39 -21 -114 -6 -87 27 47 51 190 51 303 0 135 -16 211 -61 296 -17 31 -27 47 -24 36z"></path><path id="pNdNnKt4f" d="M994 3125 c2 -11 10 -40 16 -65 17 -69 48 -150 79 -205 15 -27 33 -66 41 -85 44 -115 239 -341 430 -498 80 -66 221 -151 337 -202 144 -63 141 -63 180 -24 18 18 31 23 46 18 12 -4 29 -9 37 -11 8 -2 -30 18 -85 46 -162 83 -314 179 -451 286 -177 139 -193 154 -298 279 -151 181 -183 222 -206 262 -42 78 -132 218 -126 199z"></path><path id="pQ8zvwh2q" d="M4252 2995 c0 -33 3 -73 7 -90 6 -28 7 -27 14 19 8 57 7 146 -1 106 l-5 -25 -8 25 c-5 17 -7 7 -7 -35z"></path><path id="pcqHlCOc4" d="M3378 2953 c12 -2 32 -2 45 0 12 2 2 4 -23 4 -25 0 -35 -2 -22 -4z"></path><path id="pRPGEgpG7" d="M1427 2691 c58 -93 176 -208 310 -301 115 -80 306 -190 328 -189 6 0 -7 9 -29 20 -81 43 16 46 149 4 11 -3 -29 19 -90 49 -60 30 -140 74 -177 98 -36 24 -87 57 -113 73 -89 58 -206 146 -265 200 -52 48 -131 105 -145 105 -3 0 11 -26 32 -59z"></path><path id="pd8KwUDa6" d="M3510 2610 c-21 -7 -21 -8 -5 -9 11 0 27 4 35 9 18 11 5 11 -30 0z"></path><path id="pA5SWChdt" d="M1206 2225 c9 -14 21 -25 27 -25 6 0 0 11 -13 25 -13 14 -25 25 -27 25 -2 0 4 -11 13 -25z"></path><path id="p1G8bp09j9" d="M3098 2213 c12 -2 32 -2 45 0 12 2 2 4 -23 4 -25 0 -35 -2 -22 -4z"></path><path id="pNZ5ND2eK" d="M2336 2176 c39 -14 88 -27 110 -30 55 -9 17 7 -71 29 -107 27 -116 27 -39 1z"></path></g></g></svg>